<svg width="21" height="16" viewBox="0 0 21 16" fill="none" xmlns="http://www.w3.org/2000/svg">
<path d="M5.51916 14.1276C6.24654 14.9204 7.28449 15.378 8.35922 15.378H17.2227C19.0289 15.378 20.5 13.9069 20.5 12.1007V3.89926C20.5 2.09306 19.0289 0.621948 17.2227 0.621948H8.35922C7.28041 0.621948 6.24654 1.07554 5.51916 1.8724L0.950529 6.84558C0.349824 7.50349 0.349824 8.49241 0.950529 9.15032L5.51916 14.1276ZM1.69017 7.52393L6.2588 2.54666C6.79821 1.95821 7.56646 1.62312 8.36331 1.62312H17.2268C18.4813 1.62312 19.5029 2.64473 19.5029 3.89926V12.0966C19.5029 13.3512 18.4813 14.3728 17.2268 14.3728H8.35922C7.56237 14.3728 6.79412 14.0377 6.25471 13.4492L1.69017 8.47198C1.4409 8.20227 1.4409 7.79363 1.69017 7.52393Z" fill="black"/>
<path d="M9.7119 10.6582C9.80997 10.7563 9.93665 10.8053 10.0674 10.8053C10.1982 10.8053 10.3249 10.7563 10.4229 10.6582L12.3763 8.70488L14.3296 10.6582C14.4276 10.7563 14.5543 10.8053 14.6851 10.8053C14.8158 10.8053 14.9425 10.7563 15.0406 10.6582C15.2368 10.462 15.2368 10.1474 15.0406 9.95124L13.0832 7.99793L15.0365 6.04462C15.2327 5.84847 15.2327 5.53381 15.0365 5.33766C14.8404 5.14151 14.5257 5.14151 14.3296 5.33766L12.3763 7.29098L10.4229 5.33766C10.2268 5.14151 9.91213 5.14151 9.71599 5.33766C9.51984 5.53381 9.51984 5.84847 9.71599 6.04462L11.6693 7.99793L9.71599 9.95124C9.51984 10.1474 9.51984 10.462 9.7119 10.6582Z" fill="black"/>
</svg>
