<svg width="10" height="5" viewBox="0 0 10 5" fill="none" xmlns="http://www.w3.org/2000/svg">
<path d="M0.500044 4.17038C0.499718 4.06366 0.520912 3.9582 0.562069 3.86177C0.603227 3.76534 0.663301 3.68038 0.737879 3.61314L4.59466 0.162521C4.70968 0.0574434 4.85395 0 5.00283 0C5.15172 0 5.29599 0.0574434 5.41101 0.162521L9.26779 3.73459C9.39906 3.85586 9.48161 4.03011 9.49728 4.21902C9.51295 4.40793 9.46046 4.59602 9.35135 4.74192C9.24224 4.88781 9.08546 4.97956 8.91549 4.99698C8.74551 5.01439 8.57628 4.95605 8.44501 4.83479L4.99962 1.64136L1.55423 4.72763C1.45988 4.81499 1.34498 4.87048 1.22314 4.88754C1.1013 4.9046 0.977612 4.88251 0.866711 4.82389C0.755811 4.76527 0.662341 4.67257 0.597361 4.55675C0.53238 4.44094 0.49861 4.30686 0.500044 4.17038Z" fill="white"/>
</svg>
