<svg width="21" height="21" viewBox="0 0 21 21" fill="none" xmlns="http://www.w3.org/2000/svg">
<path d="M19.3613 2.3H15.1261V0.7C15.1261 0.59 15.0353 0.5 14.9244 0.5H13.5126C13.4017 0.5 13.3109 0.59 13.3109 0.7V2.3H6.85714V0.7C6.85714 0.59 6.76639 0.5 6.65546 0.5H5.2437C5.13277 0.5 5.04202 0.59 5.04202 0.7V2.3H0.806723C0.360504 2.3 0 2.6575 0 3.1V19.7C0 20.1425 0.360504 20.5 0.806723 20.5H19.3613C19.8076 20.5 20.1681 20.1425 20.1681 19.7V3.1C20.1681 2.6575 19.8076 2.3 19.3613 2.3ZM18.3529 18.7H1.81513V9.2H18.3529V18.7ZM1.81513 7.5V4.1H5.04202V5.3C5.04202 5.41 5.13277 5.5 5.2437 5.5H6.65546C6.76639 5.5 6.85714 5.41 6.85714 5.3V4.1H13.3109V5.3C13.3109 5.41 13.4017 5.5 13.5126 5.5H14.9244C15.0353 5.5 15.1261 5.41 15.1261 5.3V4.1H18.3529V7.5H1.81513Z" fill="#6AA9FA"/>
</svg>
