<svg width="25" height="26" viewBox="0 0 25 26" fill="none" xmlns="http://www.w3.org/2000/svg">
<path d="M12.5 0.5C15.8152 0.5 18.9946 1.81696 21.3388 4.16116C23.683 6.50537 25 9.68479 25 13C25 16.3152 23.683 19.4946 21.3388 21.8388C18.9946 24.183 15.8152 25.5 12.5 25.5C9.18479 25.5 6.00537 24.183 3.66116 21.8388C1.31696 19.4946 0 16.3152 0 13C0 9.68479 1.31696 6.50537 3.66116 4.16116C6.00537 1.81696 9.18479 0.5 12.5 0.5ZM12.5 11.4839L9.59643 8.58036C9.39538 8.37931 9.12271 8.26637 8.83839 8.26637C8.55407 8.26637 8.2814 8.37931 8.08036 8.58036C7.87931 8.7814 7.76637 9.05407 7.76637 9.33839C7.76637 9.62271 7.87931 9.89538 8.08036 10.0964L10.9839 13L8.08036 15.9036C7.98081 16.0031 7.90185 16.1213 7.84797 16.2514C7.7941 16.3814 7.76637 16.5208 7.76637 16.6616C7.76637 16.8024 7.7941 16.9418 7.84797 17.0719C7.90185 17.2019 7.98081 17.3201 8.08036 17.4196C8.1799 17.5192 8.29808 17.5982 8.42815 17.652C8.55821 17.7059 8.69761 17.7336 8.83839 17.7336C8.97917 17.7336 9.11858 17.7059 9.24864 17.652C9.3787 17.5982 9.49688 17.5192 9.59643 17.4196L12.5 14.5161L15.4036 17.4196C15.5031 17.5192 15.6213 17.5982 15.7514 17.652C15.8814 17.7059 16.0208 17.7336 16.1616 17.7336C16.3024 17.7336 16.4418 17.7059 16.5719 17.652C16.7019 17.5982 16.8201 17.5192 16.9196 17.4196C17.0192 17.3201 17.0982 17.2019 17.152 17.0719C17.2059 16.9418 17.2336 16.8024 17.2336 16.6616C17.2336 16.5208 17.2059 16.3814 17.152 16.2514C17.0982 16.1213 17.0192 16.0031 16.9196 15.9036L14.0161 13L16.9196 10.0964C17.0192 9.99688 17.0982 9.8787 17.152 9.74864C17.2059 9.61858 17.2336 9.47917 17.2336 9.33839C17.2336 9.19761 17.2059 9.05821 17.152 8.92815C17.0982 8.79808 17.0192 8.6799 16.9196 8.58036C16.8201 8.48081 16.7019 8.40185 16.5719 8.34797C16.4418 8.2941 16.3024 8.26637 16.1616 8.26637C16.0208 8.26637 15.8814 8.2941 15.7514 8.34797C15.6213 8.40185 15.5031 8.48081 15.4036 8.58036L12.5 11.4839Z" fill="#404243"/>
</svg>
