<svg width="32" height="30" viewBox="0 0 32 30" fill="none" xmlns="http://www.w3.org/2000/svg">
<path d="M31.8511 28.065L16.8627 0.821093C16.6616 0.47776 16.3044 0.273315 15.9061 0.273315C15.9049 0.273315 15.9038 0.273315 15.9027 0.273315C15.5033 0.274427 15.1461 0.481649 14.9394 0.839982L0.151059 28.0622C-0.050052 28.4089 -0.0506075 28.8239 0.149948 29.1716C0.349948 29.5189 0.709392 29.7267 1.1105 29.7267H30.8899C31.2922 29.7267 31.6516 29.5183 31.8516 29.1694C32.0499 28.8233 32.0494 28.4105 31.8511 28.065ZM1.11995 28.6061L15.8972 1.37054L30.8805 28.6061L30.8899 28.6161L1.11995 28.6061Z" fill="#F3CA40"/>
<path d="M3.07721 27.505H28.9105L15.9122 3.52722L3.07721 27.505ZM27.0444 26.3939H4.93276L15.9189 5.87055L27.0444 26.3939Z" fill="#F3CA40"/>
<path d="M15.8883 20.8383C16.1955 20.8383 16.4439 20.59 16.4439 20.2828V10.8383C16.4439 10.5311 16.1955 10.2828 15.8883 10.2828C15.5811 10.2828 15.3328 10.5311 15.3328 10.8383V20.2828C15.3328 20.5894 15.5811 20.8383 15.8883 20.8383Z" fill="#F3CA40"/>
<path d="M15.8883 24.1716C16.1955 24.1716 16.4439 23.9233 16.4439 23.6161V22.505C16.4439 22.1977 16.1955 21.9494 15.8883 21.9494C15.5811 21.9494 15.3328 22.1977 15.3328 22.505V23.6161C15.3328 23.9227 15.5811 24.1716 15.8883 24.1716Z" fill="#F3CA40"/>
</svg>
