<svg width="9" height="5" viewBox="0 0 9 5" fill="none" xmlns="http://www.w3.org/2000/svg">
<path d="M4.3869e-05 3.80865C-0.000282288 3.71971 0.0209122 3.63183 0.0620689 3.55147C0.103227 3.47111 0.163301 3.40031 0.237879 3.34428L4.09466 0.468762C4.20968 0.381198 4.35395 0.333328 4.50283 0.333328C4.65172 0.333328 4.79599 0.381198 4.91101 0.468762L8.76779 3.44549C8.89906 3.54654 8.98161 3.69175 8.99728 3.84918C9.01295 4.0066 8.96046 4.16335 8.85135 4.28493C8.74224 4.4065 8.58546 4.48296 8.41549 4.49748C8.24551 4.51199 8.07628 4.46337 7.94501 4.36232L4.49962 1.70113L1.05423 4.27302C0.959877 4.34582 0.844983 4.39206 0.723142 4.40628C0.601301 4.4205 0.477612 4.40209 0.366711 4.35324C0.255811 4.30439 0.162341 4.22714 0.0973606 4.13062C0.0323801 4.03411 -0.00139046 3.92238 4.3869e-05 3.80865Z" fill="white"/>
</svg>
