<svg width="100" height="100" viewBox="0 0 100 100" fill="none" xmlns="http://www.w3.org/2000/svg">
<g opacity="0.3" clip-path="url(#clip0_1_2)">
<path fill-rule="evenodd" clip-rule="evenodd" d="M0 0H100V100H0V0Z" fill="#F7F7FA"/>
<path d="M28.69 13.2424C28.3044 12.9192 27.6777 12.9192 27.2904 13.2424C26.9032 13.5641 26.9032 14.0872 27.2904 14.4103L71.3641 51.1914C71.7513 51.5145 72.378 51.5145 72.7636 51.1914C72.9504 51.0354 73.0048 50.7378 72.9997 50.3296V17.6577C72.9997 16.9447 72.3067 16.3678 71.4541 16.3678H32.4368L28.6917 13.2424H28.69ZM69.9068 47.6393L64.1965 42.8738H69.5212H69.9051V47.6393H69.9068ZM62.1346 41.1531L53.6405 34.0645L57.3483 28.7052L61.6539 34.9291V34.932L65.9578 41.1531H62.1346ZM52.1357 32.8072L45.5405 27.3033C46.191 26.6442 46.5817 25.7994 46.5817 24.8809C46.5817 23.8264 46.0687 22.871 45.2416 22.1807C44.4127 21.489 43.268 21.0624 42.006 21.0624C40.9054 21.0624 39.8931 21.3884 39.1033 21.9313L35.5297 18.949H69.9085V41.1531H68.3323L63.4339 34.0716H63.4322L58.2383 26.5634L57.3483 25.275L56.46 26.5592L52.1374 32.8058L52.1357 32.8072ZM44.073 26.0787L40.5708 23.1545C40.9784 22.9192 41.4727 22.7817 42.006 22.7817C42.7007 22.7817 43.3291 23.017 43.7843 23.3969C44.2395 23.7768 44.5214 24.3012 44.5214 24.8809C44.5214 25.3274 44.3567 25.7399 44.0747 26.0787H44.073ZM69.7981 53H30.65C29.7957 53 29.1044 52.4217 29.1044 51.7101V19.0397L32.1973 21.6208V41.1531H34.1998L37.522 36.3522L41.1449 31.1162L42.0349 29.8306L42.9249 31.1162L46.5477 36.3522L48.1171 38.6201L46.9316 40.3324L44.7677 37.2055L42.0349 33.2566L39.302 37.2055L36.5709 41.1531H46.3626L49.7442 36.2644L51.2491 37.5202L48.737 41.1517H55.6022L57.6642 42.8724H33.0109H32.1973V50.4189H66.7069L69.7998 53H69.7981Z" fill="#8C99B0"/>
<path d="M34.4225 65.733L36.5454 69.2835V65.6986C36.5454 65.4653 36.5915 65.2919 36.6815 65.1759C36.7715 65.0599 36.8938 65 37.0484 65C37.203 65 37.331 65.0574 37.4245 65.1747C37.5156 65.2907 37.5618 65.4666 37.5618 65.6999V70.4386C37.5618 70.9676 37.3634 71.2315 36.9665 71.2315C36.8673 71.2315 36.7784 71.2162 36.6988 71.1843C36.6204 71.1537 36.5454 71.1028 36.475 71.0339C36.4069 70.9663 36.3412 70.8848 36.2823 70.7942C36.2223 70.7037 36.1635 70.6094 36.1035 70.5125L34.0326 67.0041V70.5342C34.0326 70.7636 33.9841 70.9383 33.8884 71.0556C33.7915 71.1729 33.668 71.2328 33.5169 71.2328C33.3657 71.2328 33.2354 71.1741 33.1408 71.0543C33.0473 70.9345 33 70.7611 33 70.5342V65.886C33 65.6884 33.0208 65.5342 33.06 65.422C33.1073 65.2983 33.1846 65.1976 33.293 65.1186C33.4026 65.0408 33.5203 65.0026 33.6472 65.0026C33.7465 65.0026 33.8295 65.0204 33.9011 65.0561C33.9726 65.0918 34.0349 65.1402 34.088 65.2002C34.141 65.2601 34.1941 65.3378 34.2506 65.4347C34.306 65.5303 34.3648 65.6298 34.4248 65.7343L34.4225 65.733ZM42.5008 68.9495C42.5008 69.2835 42.4535 69.592 42.3601 69.8738C42.2643 70.1555 42.1294 70.3978 41.9505 70.6017C41.7729 70.8032 41.5594 70.96 41.3125 71.0671C41.0633 71.1754 40.7853 71.2302 40.4761 71.2302C40.1669 71.2302 39.8923 71.1754 39.6454 71.0658C39.4008 70.9561 39.1885 70.7993 39.0086 70.5941C38.8286 70.3914 38.6924 70.1492 38.6001 69.8712C38.5078 69.592 38.4605 69.2848 38.4605 68.9482C38.4605 68.6117 38.5078 68.2981 38.6013 68.015C38.6959 67.7333 38.8309 67.4924 39.0074 67.2909C39.1828 67.092 39.3962 66.9378 39.6454 66.8294C39.8969 66.7211 40.1727 66.6675 40.4761 66.6675C40.7795 66.6675 41.061 66.7223 41.3125 66.832C41.5629 66.9416 41.7775 67.0984 41.9551 67.3011C42.134 67.5038 42.2701 67.746 42.3624 68.0252C42.4547 68.3044 42.502 68.613 42.502 68.9495H42.5008ZM41.481 68.9495C41.481 68.4918 41.3898 68.1362 41.2075 67.8812C41.0252 67.6275 40.7807 67.5 40.4738 67.5C40.2742 67.5 40.1011 67.5574 39.95 67.6708C39.7988 67.7843 39.6823 67.9513 39.6004 68.1731C39.5173 68.3962 39.477 68.655 39.477 68.9508C39.477 69.2466 39.5173 69.499 39.5981 69.7195C39.6789 69.9388 39.7931 70.1071 39.9431 70.2231C40.0942 70.3391 40.2707 70.3978 40.4738 70.3978C40.7807 70.3978 41.0252 70.2703 41.2075 70.0127C41.3887 69.7578 41.481 69.4021 41.481 68.9508V68.9495ZM45.3205 70.487V65.7394C45.3205 65.4946 45.3713 65.3085 45.4728 65.1849C45.5743 65.0612 45.7059 65 45.8674 65C46.0289 65 46.1674 65.0599 46.27 65.1823C46.3727 65.3047 46.4246 65.4908 46.4246 65.7394V70.487C46.4246 70.7356 46.3727 70.9217 46.27 71.0454C46.1674 71.169 46.0324 71.2302 45.8674 71.2302C45.7024 71.2302 45.5778 71.169 45.4751 71.0441C45.3724 70.9192 45.3205 70.7343 45.3205 70.487ZM50.9668 69.0324V70.524C50.9668 70.7598 50.9184 70.937 50.8226 71.0543C50.7245 71.1716 50.5976 71.2315 50.4384 71.2315C50.2792 71.2315 50.1592 71.1729 50.0635 71.0543C49.9689 70.937 49.9204 70.7598 49.9204 70.524V68.7366C49.9204 68.4536 49.9112 68.2343 49.8939 68.0788C49.8777 67.9233 49.8304 67.7945 49.7531 67.6951C49.677 67.5956 49.5547 67.5446 49.3885 67.5446C49.0563 67.5446 48.8371 67.6708 48.7321 67.9233C48.6271 68.1744 48.5729 68.5365 48.5729 69.0082V70.524C48.5729 70.7573 48.5244 70.9332 48.4298 71.053C48.334 71.1716 48.2094 71.2315 48.0525 71.2315C47.8956 71.2315 47.7733 71.1729 47.6753 71.053C47.5772 70.9332 47.5276 70.7573 47.5276 70.524V67.3139C47.5276 67.1035 47.5726 66.9416 47.6591 66.8332C47.7468 66.7236 47.8633 66.6688 48.0075 66.6688C48.1517 66.6688 48.2613 66.7211 48.3548 66.8231C48.4471 66.925 48.4944 67.0665 48.4944 67.2476V67.3547C48.6698 67.1214 48.859 66.9505 49.0597 66.8409C49.2605 66.7313 49.4831 66.6764 49.73 66.6764C49.9769 66.6764 50.2042 66.7325 50.3888 66.8447C50.5711 66.9569 50.7222 67.1265 50.8422 67.3534C51.013 67.1239 51.1964 66.9531 51.3937 66.8422C51.5898 66.7313 51.8067 66.6752 52.0432 66.6752C52.3213 66.6752 52.5601 66.7351 52.7608 66.8562C52.9616 66.9773 53.1116 67.1494 53.2096 67.3738C53.2973 67.5752 53.3412 67.8952 53.3412 68.3325V70.5227C53.3412 70.7585 53.2927 70.9357 53.1969 71.053C53.1 71.1703 52.972 71.2302 52.8128 71.2302C52.6535 71.2302 52.5336 71.1716 52.4355 71.0518C52.3374 70.9319 52.2878 70.756 52.2878 70.5227V68.6359C52.2878 68.395 52.2786 68.2024 52.2601 68.0571C52.2405 67.9131 52.1909 67.7907 52.1101 67.6912C52.0271 67.5931 51.9048 67.5433 51.7375 67.5433C51.6037 67.5433 51.4756 67.5867 51.3568 67.6747C51.2356 67.7613 51.1433 67.8799 51.0764 68.0278C51.0014 68.2152 50.9645 68.5518 50.9645 69.0311L50.9668 69.0324ZM56.8958 70.5979C56.65 70.8083 56.4124 70.9663 56.1839 71.0722C55.9543 71.1767 55.6959 71.2302 55.4121 71.2302C55.1502 71.2302 54.9218 71.1729 54.7256 71.0594C54.5283 70.9459 54.376 70.793 54.2699 70.5979C54.1626 70.4029 54.1095 70.1925 54.1095 69.9656C54.1095 69.6583 54.1972 69.397 54.3737 69.1803C54.5503 68.9635 54.7914 68.8182 55.0994 68.7455C55.1629 68.729 55.3221 68.692 55.5794 68.6346C55.8343 68.576 56.0524 68.5237 56.2358 68.4765C56.417 68.4281 56.6154 68.3695 56.8288 68.3006C56.8162 68.0048 56.7631 67.7868 56.6673 67.6492C56.5704 67.5102 56.3743 67.4414 56.0732 67.4414C55.8159 67.4414 55.6209 67.4809 55.4917 67.5612C55.3613 67.6415 55.2494 67.7588 55.1571 67.9194C55.0648 68.0775 54.9979 68.1833 54.9598 68.2343C54.9206 68.2853 54.8375 68.3095 54.7118 68.3095C54.5976 68.3095 54.4983 68.2687 54.4164 68.1871C54.3322 68.1068 54.2918 68.0036 54.2918 67.8774C54.2918 67.681 54.3541 67.4885 54.481 67.3024C54.6079 67.1163 54.8052 66.9633 55.0729 66.8422C55.3406 66.7223 55.674 66.6611 56.0732 66.6611C56.5196 66.6611 56.8704 66.7198 57.1253 66.8371C57.3803 66.9531 57.5603 67.1367 57.6664 67.3891C57.7714 67.6402 57.8245 67.9755 57.8245 68.3924C57.8245 68.655 57.8245 68.8794 57.8222 69.0617C57.8222 69.2453 57.8199 69.4505 57.8176 69.6749C57.8176 69.8853 57.8487 70.1058 57.9122 70.334C57.9756 70.5622 58.0056 70.7101 58.0056 70.7764C58.0056 70.8911 57.9572 70.9969 57.8591 71.0913C57.761 71.1856 57.6491 71.2328 57.5268 71.2328C57.423 71.2328 57.3203 71.178 57.2188 71.0696C57.1161 70.9612 57.0088 70.8057 56.8946 70.5992L56.8958 70.5979ZM56.8288 68.975C56.68 69.0349 56.4631 69.0987 56.1805 69.1662C55.8955 69.2338 55.6994 69.2823 55.5898 69.3154C55.4802 69.346 55.3763 69.4085 55.2771 69.5003C55.1779 69.5908 55.1294 69.7195 55.1294 69.8827C55.1294 70.0459 55.1883 70.1989 55.3048 70.3174C55.4213 70.4373 55.5736 70.4959 55.7617 70.4959C55.9624 70.4959 56.147 70.4462 56.3177 70.3506C56.4873 70.2537 56.6119 70.1275 56.6927 69.9745C56.7838 69.8049 56.83 69.5258 56.83 69.1356V68.975H56.8288ZM62.4878 67.4911V70.7509C62.4878 71.1232 62.4521 71.4444 62.3805 71.7121C62.3078 71.9811 62.1936 72.203 62.0356 72.3789C61.8775 72.5535 61.6687 72.6849 61.4126 72.769C61.1564 72.8544 60.8357 72.8965 60.455 72.8965C60.1042 72.8965 59.7927 72.8417 59.517 72.7333C59.2424 72.6249 59.0313 72.486 58.8801 72.3139C58.7325 72.143 58.6586 71.9671 58.6586 71.7861C58.6586 71.6484 58.7002 71.5375 58.7844 71.4508C58.8698 71.3654 58.9713 71.322 59.0901 71.322C59.239 71.322 59.3682 71.3947 59.4801 71.54C59.5343 71.614 59.592 71.6892 59.6497 71.7644C59.7062 71.8383 59.772 71.9034 59.8423 71.9569C59.9139 72.0105 59.9969 72.0512 60.0973 72.0755C60.1965 72.1022 60.3108 72.115 60.4388 72.115C60.7019 72.115 60.9061 72.0742 61.0503 71.9952C61.1957 71.9136 61.296 71.8001 61.3549 71.656C61.4137 71.5107 61.4472 71.3539 61.4576 71.1894C61.4679 71.0237 61.4737 70.7573 61.4795 70.3901C61.3237 70.6311 61.1437 70.8159 60.9384 70.9421C60.7342 71.0683 60.4907 71.1321 60.2069 71.1321C59.8677 71.1321 59.5712 71.0365 59.3174 70.844C59.0624 70.6515 58.8675 70.3837 58.7313 70.0382C58.5952 69.6928 58.5271 69.2937 58.5271 68.8424C58.5271 68.5059 58.5686 68.2012 58.6517 67.9309C58.7359 67.6594 58.8536 67.4299 59.0071 67.2438C59.1605 67.0589 59.3382 66.9174 59.5389 66.8231C59.7397 66.7287 59.96 66.6815 60.2 66.6815C60.4884 66.6815 60.7376 66.7415 60.9476 66.8638C61.1587 66.9862 61.356 67.1787 61.536 67.4375V67.2858C61.536 67.0908 61.5787 66.9403 61.6664 66.8332C61.7529 66.7262 61.8648 66.6739 61.9998 66.6739C62.1959 66.6739 62.3263 66.744 62.3909 66.8855C62.4555 67.027 62.4878 67.231 62.4878 67.4962V67.4911ZM59.547 68.9138C59.547 69.3677 59.637 69.7119 59.8158 69.9452C59.9958 70.1785 60.2288 70.2945 60.5138 70.2945C60.6823 70.2945 60.8415 70.2435 60.9914 70.1441C61.1414 70.0446 61.2626 69.8929 61.3583 69.6928C61.4518 69.4913 61.4991 69.2466 61.4991 68.9597C61.4991 68.502 61.4079 68.1464 61.2257 67.8901C61.0422 67.6364 60.8022 67.5089 60.5057 67.5089C60.2092 67.5089 59.9831 67.6313 59.8089 67.8748C59.6335 68.117 59.5458 68.4651 59.5458 68.9151L59.547 68.9138ZM66.1601 69.2249H64.1746C64.1769 69.4799 64.2242 69.7042 64.3141 69.8993C64.4041 70.0943 64.5253 70.2397 64.6753 70.3378C64.8252 70.4373 64.9914 70.487 65.1714 70.487C65.2937 70.487 65.4044 70.4717 65.5036 70.4398C65.604 70.4092 65.7021 70.3595 65.7955 70.2932C65.8901 70.2257 65.9767 70.1543 66.0563 70.0765C66.1359 69.9987 66.2385 69.8955 66.3655 69.7642C66.4174 69.7157 66.4912 69.6902 66.5881 69.6902C66.692 69.6902 66.7773 69.7221 66.8419 69.7858C66.9054 69.8496 66.9389 69.9375 66.9389 70.0523C66.9389 70.153 66.9019 70.2728 66.8316 70.408C66.7589 70.5431 66.6504 70.6731 66.5051 70.7981C66.3597 70.923 66.1786 71.0263 65.9593 71.1079C65.7401 71.1907 65.4875 71.2315 65.2025 71.2315C64.5507 71.2315 64.0419 71.0263 63.6808 70.6158C63.3185 70.2053 63.1374 69.6469 63.1374 68.9419C63.1374 68.6104 63.1824 68.3019 63.2723 68.0189C63.3612 67.7359 63.4916 67.4924 63.6623 67.2897C63.8331 67.0882 64.0442 66.9314 64.2957 66.8243C64.546 66.716 64.8229 66.6611 65.1287 66.6611C65.5255 66.6611 65.8659 66.7542 66.1497 66.9391C66.4335 67.1239 66.6458 67.3623 66.7877 67.6555C66.9285 67.9488 67 68.2471 67 68.5518C67 68.8335 66.9262 69.0158 66.7796 69.0999C66.6331 69.1828 66.4266 69.2249 66.1612 69.2249H66.1601ZM64.1746 68.5875H66.0147C65.9905 68.205 65.897 67.9169 65.7344 67.7282C65.5717 67.537 65.3583 67.4414 65.0929 67.4414C64.8276 67.4414 64.6314 67.5382 64.4699 67.7308C64.3072 67.9245 64.208 68.2101 64.1734 68.5875H64.1746ZM37.1188 79.2121L36.858 78.4561H34.6417L34.381 79.2287C34.2783 79.5309 34.1918 79.7336 34.1191 79.8394C34.0476 79.9452 33.9299 79.9975 33.7661 79.9975C33.6276 79.9975 33.5042 79.9414 33.398 79.8292C33.2919 79.717 33.2377 79.5895 33.2377 79.4467C33.2377 79.3651 33.2504 79.2797 33.2746 79.193C33.3 79.1051 33.3403 78.9827 33.398 78.8271L34.7929 74.9146C34.8321 74.8024 34.8806 74.6673 34.9359 74.5105C34.9913 74.3524 35.0502 74.2211 35.1136 74.1178C35.1771 74.0145 35.2613 73.9304 35.364 73.8654C35.4666 73.8004 35.5936 73.7685 35.7447 73.7685C35.8958 73.7685 36.0262 73.8004 36.1289 73.8654C36.2316 73.9291 36.3158 74.0133 36.3792 74.114C36.4415 74.2147 36.4946 74.3243 36.5396 74.4403C36.5823 74.5564 36.6377 74.7119 36.7046 74.9057L38.1294 78.794C38.2413 79.0898 38.2967 79.3039 38.2967 79.4391C38.2967 79.5742 38.2436 79.7055 38.1375 79.8215C38.0325 79.9375 37.9056 79.9962 37.7568 79.9962C37.6702 79.9962 37.5953 79.9796 37.5329 79.9439C37.4706 79.9095 37.4187 79.8636 37.3772 79.8049C37.3357 79.7463 37.2895 79.6545 37.2411 79.5321C37.1926 79.4097 37.1511 79.3039 37.1165 79.2096L37.1188 79.2121ZM34.9313 77.5395H36.5615L35.7389 75.0535L34.9313 77.5395ZM39.5646 76.1334L40.3872 78.6818L41.2721 76.0224C41.3414 75.8095 41.4106 75.6578 41.4763 75.5673C41.5433 75.4793 41.6448 75.4347 41.7821 75.4347C41.9101 75.4347 42.0209 75.4819 42.1109 75.5788C42.2009 75.6744 42.247 75.7853 42.247 75.9115C42.247 75.96 42.239 76.0186 42.2228 76.0836C42.2067 76.1499 42.1882 76.2111 42.1674 76.2685C42.1455 76.3259 42.1213 76.3921 42.0947 76.4648L41.1199 79.1369C41.0933 79.2121 41.0576 79.3116 41.0149 79.4289C40.9722 79.5462 40.9226 79.6469 40.8683 79.731C40.8153 79.8151 40.7507 79.8802 40.6722 79.9261C40.5949 79.972 40.4992 79.9962 40.3872 79.9962C40.2442 79.9962 40.1277 79.9592 40.0434 79.8865C39.9581 79.8151 39.8946 79.7348 39.8542 79.6481C39.8127 79.5627 39.7435 79.3919 39.6477 79.1382L38.6809 76.4954C38.659 76.4291 38.6347 76.3628 38.6117 76.2978C38.5874 76.2315 38.569 76.1665 38.5517 76.0977C38.5344 76.0288 38.5275 75.9702 38.5275 75.9204C38.5275 75.8427 38.5494 75.7675 38.5909 75.6922C38.6324 75.617 38.6913 75.5546 38.7663 75.5074C38.8401 75.4602 38.9209 75.436 39.0074 75.436C39.1758 75.436 39.2912 75.4895 39.3547 75.5954C39.4181 75.7024 39.4885 75.8822 39.5646 76.1346V76.1334ZM45.4428 79.3638C45.1971 79.5742 44.9594 79.7323 44.731 79.8381C44.5014 79.9439 44.243 79.9962 43.9591 79.9962C43.6973 79.9962 43.4688 79.9388 43.2727 79.8253C43.0754 79.7119 42.9231 79.5589 42.817 79.3638C42.7097 79.1688 42.6566 78.9584 42.6566 78.7315C42.6566 78.4243 42.7443 78.1629 42.9208 77.9462C43.0973 77.7295 43.3384 77.5841 43.6465 77.5115C43.7099 77.4949 43.8703 77.4579 44.1264 77.4006C44.3814 77.3419 44.5995 77.2896 44.7829 77.2425C44.964 77.194 45.1625 77.1354 45.3759 77.0665C45.3632 76.7708 45.3101 76.5528 45.2144 76.4151C45.1175 76.2761 44.9213 76.2073 44.6202 76.2073C44.3629 76.2073 44.168 76.2468 44.0388 76.3271C43.9084 76.4074 43.7965 76.5247 43.703 76.6854C43.6107 76.8434 43.5438 76.9493 43.5057 76.999C43.4665 77.05 43.3834 77.0742 43.2577 77.0742C43.1435 77.0742 43.0442 77.0334 42.9623 76.9518C42.8781 76.8715 42.8377 76.7682 42.8377 76.642C42.8377 76.4457 42.9 76.2532 43.0269 76.0671C43.1539 75.8809 43.3511 75.7279 43.6188 75.6068C43.8865 75.4857 44.2187 75.4258 44.6191 75.4258C45.0656 75.4258 45.4163 75.4844 45.6713 75.6017C45.9262 75.7177 46.1062 75.9026 46.2124 76.1538C46.3173 76.4049 46.3704 76.7402 46.3704 77.1571C46.3704 77.4197 46.3693 77.6441 46.3681 77.8264C46.3669 78.0099 46.3658 78.2152 46.3635 78.4396C46.3635 78.6499 46.3958 78.8705 46.4592 79.0987C46.5227 79.3269 46.5527 79.4748 46.5527 79.5411C46.5527 79.6558 46.5042 79.7616 46.4062 79.8547C46.3081 79.949 46.1974 79.9962 46.0739 79.9962C45.9701 79.9962 45.8674 79.9414 45.7659 79.833C45.6632 79.7246 45.5559 79.5691 45.4417 79.3638H45.4428ZM45.3759 77.7409C45.2271 77.8009 45.0102 77.8646 44.7275 77.9322C44.4437 77.9997 44.2464 78.0482 44.1368 78.0801C44.0272 78.1107 43.9234 78.1731 43.8242 78.2649C43.7249 78.3554 43.6753 78.4842 43.6753 78.6474C43.6753 78.8106 43.7342 78.9635 43.8507 79.0821C43.9672 79.2019 44.1195 79.2606 44.3076 79.2606C44.5083 79.2606 44.6941 79.2109 44.8637 79.114C45.0344 79.0171 45.1579 78.8909 45.2386 78.7379C45.3298 78.5683 45.3759 78.2891 45.3759 77.899V77.7397V77.7409ZM48.4171 76.0722V79.3154C48.4171 79.5398 48.3686 79.7093 48.2729 79.8241C48.176 79.9388 48.0537 79.9962 47.9049 79.9962C47.756 79.9962 47.6349 79.9375 47.5414 79.819C47.4491 79.7017 47.4018 79.5321 47.4018 79.3141V76.104C47.4018 75.8809 47.4491 75.7139 47.5414 75.6017C47.6337 75.4895 47.7549 75.4335 47.9049 75.4335C48.0548 75.4335 48.1771 75.4895 48.2729 75.6017C48.3698 75.7139 48.4171 75.8707 48.4171 76.0709V76.0722ZM47.9141 74.9133C47.7733 74.9133 47.6522 74.8661 47.5518 74.7693C47.4514 74.6736 47.4007 74.5372 47.4007 74.3638C47.4007 74.2032 47.4526 74.0732 47.5553 73.9712C47.658 73.8692 47.7779 73.8169 47.9129 73.8169C48.0479 73.8169 48.1621 73.8628 48.2637 73.9572C48.3652 74.0502 48.4159 74.1854 48.4159 74.3638C48.4159 74.5423 48.3663 74.6711 48.2671 74.768C48.1679 74.8649 48.0502 74.9133 47.9129 74.9133H47.9141ZM49.4658 79.3154V74.4493C49.4658 74.2249 49.512 74.0553 49.602 73.9406C49.692 73.8259 49.8143 73.7685 49.9689 73.7685C50.1234 73.7685 50.2457 73.8259 50.3403 73.9393C50.4338 74.0528 50.4811 74.2223 50.4811 74.4493V79.3154C50.4811 79.5423 50.4326 79.7132 50.338 79.8266C50.2434 79.9401 50.12 79.9975 49.9689 79.9975C49.8177 79.9975 49.6989 79.9388 49.6054 79.8202C49.5131 79.703 49.4658 79.5334 49.4658 79.3154ZM54.0968 79.3651C53.8511 79.5755 53.6134 79.7336 53.385 79.8394C53.1554 79.9452 52.8981 79.9975 52.6132 79.9975C52.3513 79.9975 52.1228 79.9401 51.9267 79.8266C51.7294 79.7132 51.5771 79.5602 51.471 79.3651C51.3648 79.1701 51.3106 78.9597 51.3106 78.7328C51.3106 78.4255 51.3983 78.1642 51.5748 77.9475C51.7513 77.7307 51.9925 77.5854 52.3005 77.5127C52.364 77.4962 52.5243 77.4592 52.7805 77.4018C53.0354 77.3432 53.2535 77.2909 53.4369 77.2438C53.6181 77.1953 53.8165 77.1367 54.0299 77.0678C54.0172 76.7721 53.9642 76.5541 53.8684 76.4164C53.7715 76.2774 53.5754 76.2086 53.2742 76.2086C53.017 76.2086 52.822 76.2481 52.6928 76.3284C52.5624 76.4087 52.4505 76.526 52.3582 76.6866C52.2659 76.8447 52.2001 76.9505 52.1609 77.0003C52.1217 77.0512 52.0386 77.0755 51.914 77.0755C51.7998 77.0755 51.7006 77.0347 51.6187 76.9531C51.5344 76.8728 51.4941 76.7695 51.4941 76.6433C51.4941 76.447 51.5564 76.2545 51.6833 76.0683C51.8102 75.8822 52.0063 75.7292 52.2751 75.6081C52.5428 75.487 52.8751 75.4271 53.2754 75.4271C53.7219 75.4271 54.0726 75.4857 54.3276 75.603C54.5826 75.719 54.7625 75.9039 54.8675 76.155C54.9725 76.4062 55.0267 76.7415 55.0267 77.1583C55.0267 77.421 55.0256 77.6453 55.0244 77.8276C55.0233 78.0112 55.0221 78.2165 55.0198 78.4408C55.0198 78.6512 55.0521 78.8717 55.1156 79.0999C55.179 79.3281 55.209 79.476 55.209 79.5423C55.209 79.6571 55.1606 79.7629 55.0625 79.8559C54.9644 79.9503 54.8525 79.9975 54.7302 79.9975C54.6264 79.9975 54.5237 79.9426 54.421 79.8343C54.3184 79.7259 54.2111 79.5704 54.098 79.3651H54.0968ZM54.0299 77.7422C53.8811 77.8021 53.6642 77.8659 53.3815 77.9335C53.0966 78.001 52.9004 78.0495 52.7908 78.0813C52.6812 78.1119 52.5774 78.1744 52.4782 78.2662C52.379 78.3567 52.3294 78.4855 52.3294 78.6486C52.3294 78.8118 52.3882 78.9648 52.5047 79.0834C52.6212 79.2032 52.7735 79.2619 52.9616 79.2619C53.1623 79.2619 53.3469 79.2121 53.5177 79.1152C53.6873 79.0184 53.8119 78.8921 53.8926 78.7392C53.9838 78.5696 54.0299 78.2904 54.0299 77.9003V77.7409V77.7422ZM56.8923 74.4085V76.1232C57.0827 75.9026 57.2788 75.7356 57.4761 75.6196C57.6745 75.5036 57.9203 75.4449 58.2121 75.4449C58.5502 75.4449 58.8455 75.5329 59.0994 75.7101C59.3543 75.8873 59.5516 76.1436 59.6912 76.4788C59.832 76.8141 59.9023 77.2119 59.9023 77.6734C59.9023 78.0125 59.8631 78.3236 59.7858 78.6079C59.7074 78.8909 59.5943 79.1382 59.4455 79.346C59.2955 79.5551 59.1155 79.7144 58.9032 79.8292C58.6909 79.9426 58.4579 80 58.2018 80C58.046 80 57.8983 79.9796 57.7599 79.9388C57.6226 79.898 57.5061 79.8432 57.408 79.7756C57.3111 79.7093 57.2292 79.6392 57.1611 79.5678C57.0942 79.4977 57.0031 79.3906 56.8923 79.2478V79.3587C56.8923 79.5691 56.8462 79.7297 56.755 79.8368C56.6627 79.9452 56.545 80 56.4043 80C56.2635 80 56.1458 79.9452 56.0605 79.8368C55.9751 79.7285 55.9324 79.5691 55.9324 79.3587V74.4595C55.9324 74.2325 55.9739 74.0592 56.057 73.9431C56.1412 73.8271 56.2566 73.7685 56.4043 73.7685C56.5612 73.7685 56.6812 73.8246 56.7654 73.9355C56.8508 74.0464 56.8923 74.2045 56.8923 74.4097V74.4085ZM56.9408 77.7422C56.9408 78.1884 57.0331 78.5326 57.2176 78.7723C57.4034 79.012 57.6457 79.1318 57.9445 79.1318C58.2006 79.1318 58.421 79.0094 58.6056 78.7647C58.7902 78.5186 58.8825 78.168 58.8825 77.7091C58.8825 77.4133 58.8444 77.1596 58.7671 76.9454C58.6909 76.7313 58.5813 76.5655 58.4394 76.4495C58.2987 76.3335 58.1337 76.2749 57.9445 76.2749C57.7553 76.2749 57.5788 76.3322 57.4276 76.4495C57.2765 76.5655 57.1577 76.7351 57.0711 76.9556C56.9834 77.1762 56.9408 77.4388 56.9408 77.7422ZM60.6165 79.3167V74.4505C60.6165 74.2262 60.6626 74.0566 60.7526 73.9419C60.8426 73.8271 60.9638 73.7698 61.1195 73.7698C61.2753 73.7698 61.3964 73.8271 61.4922 73.9406C61.5856 74.0541 61.6329 74.2236 61.6329 74.4505V79.3167C61.6329 79.5436 61.5845 79.7144 61.4899 79.8279C61.3952 79.9414 61.2718 79.9987 61.1207 79.9987C60.9695 79.9987 60.8507 79.9401 60.7572 79.8215C60.665 79.7042 60.6176 79.5347 60.6176 79.3167H60.6165ZM65.514 77.9921H63.5285C63.5308 78.2471 63.5781 78.4714 63.6681 78.6665C63.7581 78.8616 63.8792 79.0069 64.028 79.1051C64.178 79.2045 64.3441 79.2542 64.5241 79.2542C64.6464 79.2542 64.756 79.2389 64.8564 79.207C64.9568 79.1764 65.0548 79.1267 65.1483 79.0592C65.244 78.9916 65.3294 78.9202 65.409 78.8437C65.4886 78.7672 65.5913 78.6627 65.7182 78.5314C65.7701 78.4829 65.844 78.4574 65.9409 78.4574C66.0447 78.4574 66.1301 78.4893 66.1947 78.553C66.2582 78.6155 66.2905 78.7047 66.2905 78.8195C66.2905 78.9202 66.2535 79.04 66.1832 79.1764C66.1105 79.3116 66.0032 79.4416 65.8567 79.5665C65.7125 79.6915 65.5302 79.7947 65.311 79.8763C65.0906 79.9592 64.8379 80 64.5541 80C63.9011 80 63.3935 79.7947 63.0324 79.3842C62.6701 78.9737 62.489 78.4154 62.489 77.7104C62.489 77.3789 62.5328 77.0704 62.624 76.7874C62.7128 76.5043 62.8432 76.2608 63.0139 76.0581C63.1858 75.8554 63.3958 75.6999 63.6473 75.5928C63.8977 75.4844 64.1757 75.4296 64.4803 75.4296C64.8783 75.4296 65.2175 75.5227 65.5013 75.7075C65.7863 75.8924 65.9974 76.1308 66.1393 76.424C66.2801 76.7172 66.3516 77.0156 66.3516 77.3202C66.3516 77.602 66.2778 77.7843 66.1324 77.8684C65.9859 77.9513 65.7794 77.9934 65.514 77.9934V77.9921ZM63.5285 77.3547H65.3698C65.3456 76.9709 65.2521 76.6841 65.0894 76.4941C64.9268 76.3029 64.7145 76.2073 64.448 76.2073C64.1815 76.2073 63.9865 76.3042 63.825 76.4967C63.6623 76.6905 63.5631 76.976 63.5296 77.3534L63.5285 77.3547Z" fill="#8C99B0"/>
</g>
<defs>
<clipPath id="clip0_1_2">
<rect width="100" height="100" fill="white"/>
</clipPath>
</defs>
</svg>
