<svg id="Layer_1" data-name="Layer 1" xmlns="http://www.w3.org/2000/svg" viewBox="0 0 397.23 368.47"><defs><style>.cls-1{fill:#75a4a6;}</style></defs><path class="cls-1" d="M13.82,354.7c9.34-8.93,18.74-17.79,28-26.8,7.42-7.21,15-14.3,21.87-22,4.22-4.67,8.76-6.08,14.88-6.05q89.45.3,178.85.07c35.82-.07,63.75-23.39,70.43-58.43,7.36-38.7-23.57-78.37-62.94-80.69-3.17-.19-6.35-.29-11.2-.51,6.65-6.7,12.27-12.36,17.89-18,8.88-8.9,17.86-17.69,26.57-26.74,3.22-3.36,5.93-4.11,10.53-2.2,45.79,19,76.9,65.32,77.26,115.61A126.37,126.37,0,0,1,259.09,356.93q-118.92.06-237.86,0h-6l-1.41-2.2"/><path class="cls-1" d="M279.83,125c-12.51,12.33-23.66,23.47-35,34.38-1.21,1.15-3.73,1.33-5.64,1.35q-48,.1-96,0c-11.24,0-19.59-7.85-19.63-18,0-10.35,8-18.09,19.44-18.11q65.34-.13,130.67,0c1.37,0,2.74.19,6.24.44"/><path class="cls-1" d="M388.28,15.33c-2,2.44-3.1,3.86-4.32,5.09-16.47,16.5-32.85,33.09-49.59,49.31-2.25,2.19-6.33,3.47-9.58,3.48-61.21.21-122.44.06-183.66.24-32.69.1-61.31,23.81-67.35,55.23-8.21,42.69,22.64,81.49,66.11,83.12,2.13.08,4.28,0,6.41,0l1.29,2.21c-6,5.56-12.17,11-18,16.73-9.58,9.34-19.08,18.76-28.37,28.38-2.42,2.5-4.4,2.73-7.39,1.38-48.24-21.79-76.32-58.69-78.85-111.78C12.34,94.25,37.62,54.25,85.39,28.6c17-9.16,35.69-13.22,55.06-13.23,80.88-.06,162.65-2.76,242.64,0h5.19"/><path class="cls-1" d="M122.85,245.25c2.67-2,5.59-3.79,8-6.12,8-7.77,15.63-15.85,23.67-23.55a11,11,0,0,1,6.72-3c32.4-.2,64.79-.19,97.19-.14,8.24,0,14.76,4.57,17.37,11.79,2.52,7,1,14.88-5.17,19.09a24.44,24.44,0,0,1-12.83,4.21c-39.08.3-78.15.15-117.22.14-5.36,0-10.73,0-16.1,0-.53-.83-1.07-1.65-1.6-2.47"/></svg>