<svg width="20" height="20" viewBox="0 0 20 20" fill="none" xmlns="http://www.w3.org/2000/svg">
<path d="M13.5032 12.4639C13.4372 12.068 13.1434 11.7476 12.7547 11.6477L11.0146 11.2002V10.5894C11.6585 10.1441 12.0514 9.40507 12.0514 8.61773V7.58101C12.0514 6.44965 11.1309 5.52917 9.99952 5.52917H9.30838C8.17702 5.52917 7.25654 6.44965 7.25654 7.58101V8.61773C7.25654 9.40507 7.64937 10.1441 8.29326 10.5894V11.2002L6.55322 11.6477C6.16449 11.7476 5.87067 12.068 5.80471 12.4639L5.66721 13.2889C5.61805 13.5838 5.70069 13.8837 5.89395 14.1119C6.08721 14.3401 6.36954 14.4709 6.66851 14.4709H12.6394C12.9384 14.4709 13.2207 14.3401 13.414 14.1119C13.6072 13.8838 13.6898 13.5838 13.6407 13.2889L13.5032 12.4639ZM12.9196 13.6931C12.8486 13.7768 12.7491 13.8229 12.6394 13.8229H6.66851C6.55879 13.8229 6.45926 13.7768 6.38834 13.6931C6.31741 13.6093 6.28829 13.5036 6.30635 13.3954L6.44384 12.5704C6.46769 12.4272 6.57395 12.3113 6.71456 12.2752L8.69792 11.7652C8.84112 11.7283 8.94121 11.5992 8.94121 11.4514V10.4115C8.94121 10.2959 8.87965 10.1891 8.77961 10.1311C8.23983 9.81846 7.90449 9.23855 7.90449 8.61773V7.58101C7.90449 6.80693 8.5343 6.17712 9.30838 6.17712H9.99952C10.7736 6.17712 11.4034 6.80693 11.4034 7.58101V8.61773C11.4034 9.23855 11.0681 9.81846 10.5283 10.1312C10.4283 10.1891 10.3667 10.2959 10.3667 10.4115V11.4514C10.3667 11.5993 10.4668 11.7284 10.61 11.7652L12.5933 12.2752C12.734 12.3114 12.8402 12.4273 12.8641 12.5704L13.0016 13.3954C13.0196 13.5036 12.9905 13.6093 12.9196 13.6931Z" fill="black"/>
<path d="M17.6021 1.72786H17.235V1.36069C17.235 0.61041 16.6246 0 15.8743 0H3.43367C2.68339 0 2.07298 0.61041 2.07298 1.36069V2.76458H1.70581C1.52689 2.76458 1.38184 2.90963 1.38184 3.08855C1.38184 3.26747 1.52689 3.41253 1.70581 3.41253H2.07298V4.49244H1.70581C1.52689 4.49244 1.38184 4.63749 1.38184 4.81641C1.38184 4.99533 1.52689 5.14039 1.70581 5.14039H2.07298V6.2203H1.70581C1.52689 6.2203 1.38184 6.36536 1.38184 6.54428C1.38184 6.7232 1.52689 6.86825 1.70581 6.86825H2.07298V7.94816H1.70581C1.52689 7.94816 1.38184 8.09322 1.38184 8.27214C1.38184 8.45106 1.52689 8.59611 1.70581 8.59611H2.07298V9.67603H1.70581C1.52689 9.67603 1.38184 9.82108 1.38184 10C1.38184 10.1789 1.52689 10.324 1.70581 10.324H2.07298V11.4039H1.70581C1.52689 11.4039 1.38184 11.5489 1.38184 11.7279C1.38184 11.9068 1.52689 12.0518 1.70581 12.0518H2.07298V13.1317H1.70581C1.52689 13.1317 1.38184 13.2768 1.38184 13.4557C1.38184 13.6346 1.52689 13.7797 1.70581 13.7797H2.07298V14.8596H1.70581C1.52689 14.8596 1.38184 15.0047 1.38184 15.1836C1.38184 15.3625 1.52689 15.5076 1.70581 15.5076H2.07298V16.5875H1.70581C1.52689 16.5875 1.38184 16.7325 1.38184 16.9114C1.38184 17.0904 1.52689 17.2354 1.70581 17.2354H2.07298V18.6393C2.07298 19.3896 2.68339 20 3.43367 20H15.8743C16.6246 20 17.235 19.3896 17.235 18.6393V12.743H17.6021C18.1619 12.743 18.6173 12.2876 18.6173 11.7279V2.74298C18.6173 2.18324 18.1619 1.72786 17.6021 1.72786ZM17.235 6.52268H17.9693V7.94816H17.235V6.52268ZM17.235 5.87473V4.44924H17.9693V5.87473H17.235ZM17.235 8.59611H17.9693V10.0216H17.235V8.59611ZM17.6021 2.37581C17.8046 2.37581 17.9693 2.54052 17.9693 2.74298V3.8013H17.235V2.37581H17.6021ZM16.587 18.6393C16.587 19.0323 16.2673 19.3521 15.8743 19.3521H3.43367C3.04067 19.3521 2.72093 19.0323 2.72093 18.6393V17.2354H3.0881C3.26702 17.2354 3.41207 17.0904 3.41207 16.9114C3.41207 16.7325 3.26702 16.5875 3.0881 16.5875H2.72093V15.5076H3.0881C3.26702 15.5076 3.41207 15.3625 3.41207 15.1836C3.41207 15.0047 3.26702 14.8596 3.0881 14.8596H2.72093V13.7797H3.0881C3.26702 13.7797 3.41207 13.6346 3.41207 13.4557C3.41207 13.2768 3.26702 13.1317 3.0881 13.1317H2.72093V12.0518H3.0881C3.26702 12.0518 3.41207 11.9068 3.41207 11.7279C3.41207 11.5489 3.26702 11.4039 3.0881 11.4039H2.72093V10.324H3.0881C3.26702 10.324 3.41207 10.1789 3.41207 10C3.41207 9.82108 3.26702 9.67603 3.0881 9.67603H2.72093V8.59611H3.0881C3.26702 8.59611 3.41207 8.45106 3.41207 8.27214C3.41207 8.09322 3.26702 7.94816 3.0881 7.94816H2.72093V6.86825H3.0881C3.26702 6.86825 3.41207 6.7232 3.41207 6.54428C3.41207 6.36536 3.26702 6.2203 3.0881 6.2203H2.72093V5.14039H3.0881C3.26702 5.14039 3.41207 4.99533 3.41207 4.81641C3.41207 4.63749 3.26702 4.49244 3.0881 4.49244H2.72093V3.41253H3.0881C3.26702 3.41253 3.41207 3.26747 3.41207 3.08855C3.41207 2.90963 3.26702 2.76458 3.0881 2.76458H2.72093V1.36069C2.72093 0.967689 3.04067 0.647948 3.43367 0.647948H15.8743C16.2673 0.647948 16.587 0.967689 16.587 1.36069V18.6393ZM17.6021 12.095H17.235V10.6695H17.9693V11.7279C17.9693 11.9303 17.8046 12.095 17.6021 12.095Z" fill="black"/>
</svg>
