<svg width="20" height="15" viewBox="0 0 20 15" fill="none" xmlns="http://www.w3.org/2000/svg">
<path d="M19.5918 0.990356H0.408163C0.182776 0.990356 0 1.17254 0 1.39721V13.6028C0 13.8274 0.182776 14.0096 0.408163 14.0096H19.5918C19.8172 14.0096 20 13.8274 20 13.6028V1.39721C20 1.17254 19.8172 0.990356 19.5918 0.990356ZM18.1092 1.80406L10 6.61956L1.89078 1.80406H18.1092ZM19.1837 13.1959H0.816326V2.11315L6.97171 5.76839L2.6038 9.21524L3.11049 9.85327L7.72216 6.2141L9.79106 7.44267C9.85547 7.48087 9.92771 7.49999 10 7.49999C10.0723 7.49999 10.1445 7.48087 10.2089 7.44267L12.2778 6.2141L16.8895 9.85327L17.3962 9.21524L13.0283 5.76843L19.1837 2.11315V13.1959Z" fill="black"/>
</svg>
