<svg width="20" height="20" viewBox="0 0 20 20" fill="none" xmlns="http://www.w3.org/2000/svg">
<g clip-path="url(#clip0_1069_1491)">
<path d="M5.01916 16.1276C5.74654 16.9204 6.78449 17.378 7.85922 17.378H16.7227C18.5289 17.378 20 15.9069 20 14.1007V5.89926C20 4.09306 18.5289 2.62195 16.7227 2.62195H7.85922C6.78041 2.62195 5.74654 3.07554 5.01916 3.8724L0.450529 8.84558C-0.150176 9.50349 -0.150176 10.4924 0.450529 11.1503L5.01916 16.1276ZM1.19017 9.52393L5.7588 4.54666C6.29821 3.95821 7.06646 3.62312 7.86331 3.62312H16.7268C17.9813 3.62312 19.0029 4.64473 19.0029 5.89926V14.0966C19.0029 15.3512 17.9813 16.3728 16.7268 16.3728H7.85922C7.06237 16.3728 6.29412 16.0377 5.75471 15.4492L1.19017 10.472C0.9409 10.2023 0.9409 9.79363 1.19017 9.52393Z" fill="black"/>
<path d="M9.2119 12.6582C9.30997 12.7563 9.43665 12.8053 9.56742 12.8053C9.69818 12.8053 9.82486 12.7563 9.92294 12.6582L11.8763 10.7049L13.8296 12.6582C13.9276 12.7563 14.0543 12.8053 14.1851 12.8053C14.3158 12.8053 14.4425 12.7563 14.5406 12.6582C14.7368 12.462 14.7368 12.1474 14.5406 11.9512L12.5832 9.99793L14.5365 8.04462C14.7327 7.84847 14.7327 7.53381 14.5365 7.33766C14.3404 7.14151 14.0257 7.14151 13.8296 7.33766L11.8763 9.29098L9.92294 7.33766C9.72679 7.14151 9.41213 7.14151 9.21599 7.33766C9.01984 7.53381 9.01984 7.84847 9.21599 8.04462L11.1693 9.99793L9.21599 11.9512C9.01984 12.1474 9.01984 12.462 9.2119 12.6582Z" fill="black"/>
</g>
<defs>
<clipPath id="clip0_1069_1491">
<rect width="20" height="20" fill="white"/>
</clipPath>
</defs>
</svg>
