<svg width="31" height="32" viewBox="0 0 31 32" fill="none" xmlns="http://www.w3.org/2000/svg">
<circle cx="15.8125" cy="16.1953" r="15" fill="white"/>
<path d="M15.8477 0.804688C11.8843 0.852505 8.09667 2.44821 5.29393 5.25096C2.49118 8.0537 0.895473 11.8413 0.847656 15.8047C0.895473 19.7681 2.49118 23.5557 5.29393 26.3584C8.09667 29.1612 11.8843 30.7569 15.8477 30.8047C19.8111 30.7569 23.5986 29.1612 26.4014 26.3584C29.2041 23.5557 30.7998 19.7681 30.8477 15.8047C30.7998 11.8413 29.2041 8.0537 26.4014 5.25096C23.5986 2.44821 19.8111 0.852505 15.8477 0.804688ZM24.4191 16.8761H16.9191V24.3761H14.7762V16.8761H7.27623V14.7333H14.7762V7.23326H16.9191V14.7333H24.4191V16.8761Z" fill="#F3CA40"/>
</svg>
