<svg width="26" height="26" viewBox="0 0 26 26" fill="none" xmlns="http://www.w3.org/2000/svg">
<path d="M25.3923 5.89225L20.1077 0.60775C19.7178 0.21775 19.188 0 18.6355 0H1.04C0.46475 0 0 0.46475 0 1.04V24.96C0 25.5352 0.46475 26 1.04 26H24.96C25.5352 26 26 25.5352 26 24.96V7.36125C26 6.80875 25.7823 6.28225 25.3923 5.89225ZM8.84 2.08H17.16V5.72H8.84V2.08ZM13 20.085C10.4163 20.085 8.32 17.9888 8.32 15.405C8.32 12.8212 10.4163 10.725 13 10.725C15.5838 10.725 17.68 12.8212 17.68 15.405C17.68 17.9888 15.5838 20.085 13 20.085ZM13 12.805C11.5635 12.805 10.4 13.9685 10.4 15.405C10.4 16.8415 11.5635 18.005 13 18.005C14.4365 18.005 15.6 16.8415 15.6 15.405C15.6 13.9685 14.4365 12.805 13 12.805Z" fill="#3E5C76"/>
</svg>
