<svg width="22" height="22" viewBox="0 0 22 22" fill="none" xmlns="http://www.w3.org/2000/svg">
<path d="M9.23976 18.9287C11.2465 18.9283 13.1954 18.2565 14.7761 17.0204L19.746 21.9903L21.3446 20.3917L16.3747 15.4217C17.6115 13.8409 18.2837 11.8915 18.2842 9.88429C18.2842 4.89741 14.2266 0.839844 9.23976 0.839844C4.25288 0.839844 0.195312 4.89741 0.195312 9.88429C0.195312 14.8712 4.25288 18.9287 9.23976 18.9287ZM9.23976 3.10095C12.9808 3.10095 16.0231 6.14328 16.0231 9.88429C16.0231 13.6253 12.9808 16.6676 9.23976 16.6676C5.49875 16.6676 2.45642 13.6253 2.45642 9.88429C2.45642 6.14328 5.49875 3.10095 9.23976 3.10095Z" fill="white"/>
</svg>
