<svg width="30" height="30" viewBox="0 0 30 30" fill="none" xmlns="http://www.w3.org/2000/svg">
<path d="M12.756 25.1994C15.5168 25.1988 18.1981 24.2746 20.3729 22.5738L27.2106 29.4115L29.41 27.2121L22.5723 20.3745C24.2739 18.1994 25.1988 15.5175 25.1994 12.756C25.1994 5.89495 19.617 0.3125 12.756 0.3125C5.89495 0.3125 0.3125 5.89495 0.3125 12.756C0.3125 19.617 5.89495 25.1994 12.756 25.1994ZM12.756 3.42336C17.9029 3.42336 22.0886 7.60903 22.0886 12.756C22.0886 17.9029 17.9029 22.0886 12.756 22.0886C7.60903 22.0886 3.42337 17.9029 3.42337 12.756C3.42337 7.60903 7.60903 3.42336 12.756 3.42336Z" fill="#EDDFDF"/>
<path d="M14.9513 10.5531C15.5408 11.1442 15.8659 11.925 15.8659 12.7525H18.9768C18.9781 11.935 18.8175 11.1253 18.504 10.3703C18.1906 9.61528 17.7306 8.92987 17.1507 8.3537C14.7958 6.00189 10.7127 6.00189 8.35938 8.3537L10.5556 10.5562C11.7378 9.37718 13.7754 9.38029 14.9513 10.5531Z" fill="#FFFCFC"/>
</svg>
