<svg width="37" height="37" viewBox="0 0 37 37" fill="none" xmlns="http://www.w3.org/2000/svg">
<circle cx="18.5" cy="18.5" r="18.1636" fill="white" stroke="black" stroke-width="0.672727"/>
<path d="M16.2398 26.9287C18.2465 26.9283 20.1954 26.2565 21.7761 25.0204L26.746 29.9903L28.3446 28.3917L23.3747 23.4217C24.6115 21.8409 25.2837 19.8915 25.2842 17.8843C25.2842 12.8974 21.2266 8.83984 16.2398 8.83984C11.2529 8.83984 7.19531 12.8974 7.19531 17.8843C7.19531 22.8712 11.2529 26.9287 16.2398 26.9287ZM16.2398 11.101C19.9808 11.101 23.0231 14.1433 23.0231 17.8843C23.0231 21.6253 19.9808 24.6676 16.2398 24.6676C12.4987 24.6676 9.45642 21.6253 9.45642 17.8843C9.45642 14.1433 12.4987 11.101 16.2398 11.101Z" fill="#463C3C"/>
<path d="M17.8343 16.283C18.2627 16.7126 18.499 17.2801 18.499 17.8816H20.7601C20.7611 17.2874 20.6444 16.6989 20.4165 16.1501C20.1887 15.6014 19.8544 15.1032 19.4329 14.6844C17.7212 12.975 14.7535 12.975 13.043 14.6844L14.6393 16.2853C15.4985 15.4283 16.9796 15.4306 17.8343 16.283Z" fill="#463C3C"/>
</svg>
