<svg width="20" height="20" viewBox="0 0 20 20" fill="none" xmlns="http://www.w3.org/2000/svg">
<path d="M10.0006 0C11.0269 -6.68962e-07 12.0139 0.328696 12.7575 0.918103C13.5011 1.50751 13.9445 2.31253 13.9958 3.16667L14.0008 3.33333H19.0011C19.2559 3.33357 19.5011 3.4149 19.6865 3.56071C19.8718 3.70651 19.9833 3.90579 19.9983 4.11783C20.0132 4.32986 19.9304 4.53865 19.7668 4.70153C19.6032 4.8644 19.3712 4.96908 19.1181 4.99417L19.0011 5H18.152L16.9719 17.1275C16.8958 17.9101 16.469 18.6401 15.7763 19.1723C15.0837 19.7046 14.1759 20.0001 13.2337 20H6.76738C5.82517 20.0001 4.91746 19.7046 4.2248 19.1723C3.53215 18.6401 3.1053 17.9101 3.02917 17.1275L1.8481 5H1.00006C0.755109 4.99997 0.518692 4.92504 0.335647 4.7894C0.152602 4.65377 0.0356591 4.46688 0.00700036 4.26417L0 4.16667C3.23123e-05 3.96256 0.0899609 3.76555 0.252729 3.61302C0.415497 3.46049 0.639784 3.36305 0.883049 3.33917L1.00006 3.33333H6.00033C6.00033 2.44928 6.42178 1.60143 7.17197 0.976311C7.92216 0.35119 8.93963 0 10.0006 0ZM7.75043 7.70833C7.56918 7.70834 7.39407 7.76304 7.25747 7.86231C7.12088 7.96158 7.03204 8.09871 7.00739 8.24833L7.00039 8.33333V15L7.00739 15.085C7.03209 15.2346 7.12095 15.3717 7.25754 15.4709C7.39413 15.5701 7.56922 15.6248 7.75043 15.6248C7.93164 15.6248 8.10673 15.5701 8.24332 15.4709C8.37991 15.3717 8.46877 15.2346 8.49347 15.085L8.50047 15V8.33333L8.49347 8.24833C8.46882 8.09871 8.37998 7.96158 8.24339 7.86231C8.10679 7.76304 7.93168 7.70834 7.75043 7.70833ZM12.2507 7.70833C12.0694 7.70834 11.8943 7.76304 11.7577 7.86231C11.6211 7.96158 11.5323 8.09871 11.5076 8.24833L11.5006 8.33333V15L11.5076 15.085C11.5323 15.2346 11.6212 15.3717 11.7578 15.4709C11.8944 15.5701 12.0695 15.6248 12.2507 15.6248C12.4319 15.6248 12.607 15.5701 12.7436 15.4709C12.8802 15.3717 12.969 15.2346 12.9937 15.085L13.0007 15V8.33333L12.9937 8.24833C12.9691 8.09871 12.8802 7.96158 12.7436 7.86231C12.607 7.76304 12.4319 7.70834 12.2507 7.70833ZM10.0006 1.66667C9.49595 1.66653 9.00993 1.82534 8.63993 2.11125C8.26993 2.39716 8.04329 2.78904 8.00544 3.20833L8.00044 3.33333H12.0007L11.9957 3.20833C11.9578 2.78904 11.7312 2.39716 11.3612 2.11125C10.9912 1.82534 10.5052 1.66653 10.0006 1.66667Z" fill="#BC4749"/>
</svg>
