<svg width="10" height="6" viewBox="0 0 10 6" fill="none" xmlns="http://www.w3.org/2000/svg">
<path d="M9.49996 1.22961C9.50028 1.33634 9.47909 1.44179 9.43793 1.53822C9.39677 1.63466 9.3367 1.71961 9.26212 1.78685L5.40534 5.23747C5.29032 5.34255 5.14605 5.39999 4.99717 5.39999C4.84828 5.39999 4.70401 5.34255 4.58899 5.23747L0.732212 1.6654C0.600942 1.54414 0.518391 1.36988 0.50272 1.18097C0.487049 0.992064 0.539541 0.803973 0.648648 0.658077C0.757755 0.512182 0.914541 0.420434 1.08451 0.403017C1.25449 0.3856 1.42372 0.44394 1.55499 0.565203L5.00038 3.75864L8.44577 0.672366C8.54012 0.585005 8.65502 0.529511 8.77686 0.512452C8.8987 0.495392 9.02239 0.517479 9.13329 0.576101C9.24419 0.634723 9.33766 0.727425 9.40264 0.843239C9.46762 0.959053 9.50139 1.09313 9.49996 1.22961Z" fill="white"/>
</svg>
