<svg width="50" height="50" viewBox="0 0 50 50" fill="none" xmlns="http://www.w3.org/2000/svg">
<circle cx="25" cy="25" r="25" fill="white"/>
<path d="M26.9571 25.2583L34.1169 18.1142C34.4304 17.8007 34.6065 17.3753 34.6065 16.9319C34.6065 16.4884 34.4304 16.0631 34.1169 15.7495C33.8033 15.4359 33.3781 15.2598 32.9347 15.2598C32.4913 15.2598 32.066 15.4359 31.7525 15.7495L24.6094 22.9103L17.4663 15.7495C17.1527 15.4359 16.7275 15.2598 16.2841 15.2598C15.8407 15.2598 15.4154 15.4359 15.1019 15.7495C14.7884 16.0631 14.6122 16.4884 14.6122 16.9319C14.6122 17.3753 14.7884 17.8007 15.1019 18.1142L22.2616 25.2583L15.1019 32.4025C14.9458 32.5573 14.822 32.7415 14.7374 32.9444C14.6529 33.1473 14.6094 33.365 14.6094 33.5848C14.6094 33.8047 14.6529 34.0223 14.7374 34.2253C14.822 34.4282 14.9458 34.6124 15.1019 34.7672C15.2567 34.9233 15.4408 35.0471 15.6437 35.1317C15.8466 35.2162 16.0643 35.2598 16.2841 35.2598C16.5039 35.2598 16.7215 35.2162 16.9244 35.1317C17.1273 35.0471 17.3115 34.9233 17.4663 34.7672L24.6094 27.6064L31.7525 34.7672C31.9073 34.9233 32.0914 35.0471 32.2943 35.1317C32.4972 35.2162 32.7149 35.2598 32.9347 35.2598C33.1545 35.2598 33.3721 35.2162 33.575 35.1317C33.7779 35.0471 33.9621 34.9233 34.1169 34.7672C34.2729 34.6124 34.3968 34.4282 34.4813 34.2253C34.5659 34.0223 34.6094 33.8047 34.6094 33.5848C34.6094 33.365 34.5659 33.1473 34.4813 32.9444C34.3968 32.7415 34.2729 32.5573 34.1169 32.4025L26.9571 25.2583Z" fill="#E05959"/>
</svg>
