<svg width="12" height="7" viewBox="0 0 12 7" fill="none" xmlns="http://www.w3.org/2000/svg">
<path d="M11.8334 1.55053C11.8338 1.6688 11.8063 1.78566 11.753 1.89252C11.6996 1.99938 11.6217 2.09352 11.525 2.16803L6.52503 5.99178C6.37592 6.10822 6.18888 6.17188 5.99586 6.17188C5.80284 6.17188 5.6158 6.10822 5.46669 5.99178L0.466693 2.03345C0.296512 1.89907 0.189492 1.70598 0.169176 1.49664C0.148859 1.2873 0.216911 1.07887 0.35836 0.917198C0.499808 0.755527 0.703068 0.653858 0.923423 0.634557C1.14378 0.615256 1.36318 0.679905 1.53336 0.814281L6.00003 4.35303L10.4667 0.933032C10.589 0.836225 10.738 0.77473 10.8959 0.755826C11.0539 0.736921 11.2142 0.761396 11.358 0.826357C11.5018 0.891318 11.623 0.994045 11.7072 1.12238C11.7914 1.25072 11.8352 1.3993 11.8334 1.55053Z" fill="#303233"/>
</svg>
