<svg width="20" height="20" viewBox="0 0 20 20" fill="none" xmlns="http://www.w3.org/2000/svg">
<path d="M3.125 0C2.2962 0 1.50134 0.32924 0.915291 0.915291C0.32924 1.50134 0 2.2962 0 3.125V14.375C0 15.2038 0.32924 15.9987 0.915291 16.5847C1.50134 17.1708 2.2962 17.5 3.125 17.5H8.25C7.58895 16.206 7.35491 14.7358 7.58147 13.3005C7.80803 11.8651 8.48355 10.5385 9.51103 9.51103C10.5385 8.48355 11.8651 7.80803 13.3005 7.58147C14.7358 7.35491 16.206 7.58895 17.5 8.25V3.125C17.5 2.2962 17.1708 1.50134 16.5847 0.915291C15.9987 0.32924 15.2038 0 14.375 0H3.125ZM14.375 7.5H8.75C8.58424 7.5 8.42527 7.43415 8.30806 7.31694C8.19085 7.19973 8.125 7.04076 8.125 6.875C8.125 6.70924 8.19085 6.55027 8.30806 6.43306C8.42527 6.31585 8.58424 6.25 8.75 6.25H14.375C14.5408 6.25 14.6997 6.31585 14.8169 6.43306C14.9342 6.55027 15 6.70924 15 6.875C15 7.04076 14.9342 7.19973 14.8169 7.31694C14.6997 7.43415 14.5408 7.5 14.375 7.5ZM3.125 2.5H14.375C14.5408 2.5 14.6997 2.56585 14.8169 2.68306C14.9342 2.80027 15 2.95924 15 3.125C15 3.29076 14.9342 3.44973 14.8169 3.56694C14.6997 3.68415 14.5408 3.75 14.375 3.75H3.125C2.95924 3.75 2.80027 3.68415 2.68306 3.56694C2.56585 3.44973 2.5 3.29076 2.5 3.125C2.5 2.95924 2.56585 2.80027 2.68306 2.68306C2.80027 2.56585 2.95924 2.5 3.125 2.5V2.5ZM4.6875 6.25C4.43886 6.25 4.2004 6.34877 4.02459 6.52459C3.84877 6.7004 3.75 6.93886 3.75 7.1875C3.75 7.43614 3.84877 7.6746 4.02459 7.85041C4.2004 8.02623 4.43886 8.125 4.6875 8.125C4.93614 8.125 5.1746 8.02623 5.35041 7.85041C5.52623 7.6746 5.625 7.43614 5.625 7.1875C5.625 6.93886 5.52623 6.7004 5.35041 6.52459C5.1746 6.34877 4.93614 6.25 4.6875 6.25ZM2.5 7.1875C2.5 6.60734 2.73047 6.05094 3.1407 5.6407C3.55094 5.23047 4.10734 5 4.6875 5C5.26766 5 5.82406 5.23047 6.2343 5.6407C6.64453 6.05094 6.875 6.60734 6.875 7.1875C6.875 7.76766 6.64453 8.32406 6.2343 8.7343C5.82406 9.14453 5.26766 9.375 4.6875 9.375C4.10734 9.375 3.55094 9.14453 3.1407 8.7343C2.73047 8.32406 2.5 7.76766 2.5 7.1875V7.1875ZM3.75 12.8125C3.75 12.5639 3.84877 12.3254 4.02459 12.1496C4.2004 11.9738 4.43886 11.875 4.6875 11.875C4.93614 11.875 5.1746 11.9738 5.35041 12.1496C5.52623 12.3254 5.625 12.5639 5.625 12.8125C5.625 13.0611 5.52623 13.2996 5.35041 13.4754C5.1746 13.6512 4.93614 13.75 4.6875 13.75C4.43886 13.75 4.2004 13.6512 4.02459 13.4754C3.84877 13.2996 3.75 13.0611 3.75 12.8125V12.8125ZM4.6875 10.625C5.26766 10.625 5.82406 10.8555 6.2343 11.2657C6.64453 11.6759 6.875 12.2323 6.875 12.8125C6.875 13.3927 6.64453 13.9491 6.2343 14.3593C5.82406 14.7695 5.26766 15 4.6875 15C4.10734 15 3.55094 14.7695 3.1407 14.3593C2.73047 13.9491 2.5 13.3927 2.5 12.8125C2.5 12.2323 2.73047 11.6759 3.1407 11.2657C3.55094 10.8555 4.10734 10.625 4.6875 10.625V10.625ZM20 14.375C20 15.8668 19.4074 17.2976 18.3525 18.3525C17.2976 19.4074 15.8668 20 14.375 20C12.8832 20 11.4524 19.4074 10.3975 18.3525C9.34263 17.2976 8.75 15.8668 8.75 14.375C8.75 12.8832 9.34263 11.4524 10.3975 10.3975C11.4524 9.34263 12.8832 8.75 14.375 8.75C15.8668 8.75 17.2976 9.34263 18.3525 10.3975C19.4074 11.4524 20 12.8832 20 14.375V14.375ZM15 11.875C15 11.7092 14.9342 11.5503 14.8169 11.4331C14.6997 11.3158 14.5408 11.25 14.375 11.25C14.2092 11.25 14.0503 11.3158 13.9331 11.4331C13.8158 11.5503 13.75 11.7092 13.75 11.875V13.75H11.875C11.7092 13.75 11.5503 13.8158 11.4331 13.9331C11.3158 14.0503 11.25 14.2092 11.25 14.375C11.25 14.5408 11.3158 14.6997 11.4331 14.8169C11.5503 14.9342 11.7092 15 11.875 15H13.75V16.875C13.75 17.0408 13.8158 17.1997 13.9331 17.3169C14.0503 17.4342 14.2092 17.5 14.375 17.5C14.5408 17.5 14.6997 17.4342 14.8169 17.3169C14.9342 17.1997 15 17.0408 15 16.875V15H16.875C17.0408 15 17.1997 14.9342 17.3169 14.8169C17.4342 14.6997 17.5 14.5408 17.5 14.375C17.5 14.2092 17.4342 14.0503 17.3169 13.9331C17.1997 13.8158 17.0408 13.75 16.875 13.75H15V11.875Z" fill="white"/>
</svg>
