<svg width="22" height="21" viewBox="0 0 22 21" fill="none" xmlns="http://www.w3.org/2000/svg">
<path d="M4.705 2.21L3.295 0.79C0 4.063 0 6.435 0 9.5H1L2 9.437C2 6.509 2 4.896 4.705 2.21ZM18.704 0.79L17.296 2.21C20 4.896 20 6.509 20 9.5L22 9.437C22 6.435 22 4.063 18.704 0.79ZM11 20.5C11.6193 20.5008 12.2235 20.3086 12.7285 19.9502C13.2335 19.5917 13.6143 19.0849 13.818 18.5H8.182C8.38566 19.0849 8.76648 19.5917 9.27151 19.9502C9.77654 20.3086 10.3807 20.5008 11 20.5ZM18 13.086V8.5C18 5.283 15.815 2.573 12.855 1.758C12.562 1.02 11.846 0.5 11 0.5C10.154 0.5 9.438 1.02 9.145 1.758C6.184 2.573 4 5.283 4 8.5V13.086L2.293 14.793C2.19996 14.8857 2.12617 14.9959 2.07588 15.1172C2.0256 15.2386 1.99981 15.3687 2 15.5V16.5C2 16.7652 2.10536 17.0196 2.29289 17.2071C2.48043 17.3946 2.73478 17.5 3 17.5H19C19.2652 17.5 19.5196 17.3946 19.7071 17.2071C19.8946 17.0196 20 16.7652 20 16.5V15.5C20.0002 15.3687 19.9744 15.2386 19.9241 15.1172C19.8738 14.9959 19.8 14.8857 19.707 14.793L18 13.086Z" fill="white"/>
</svg>
