<svg width="25" height="25" viewBox="0 0 25 25" fill="none" xmlns="http://www.w3.org/2000/svg">
<path d="M19.5 11.5H7.64L11.27 7.13997C11.4397 6.93575 11.5214 6.67247 11.497 6.40805C11.4726 6.14362 11.3442 5.89971 11.14 5.72997C10.9358 5.56023 10.6725 5.47857 10.4081 5.50295C10.1437 5.52733 9.89974 5.65575 9.73 5.85997L4.73 11.86C4.69636 11.9077 4.66628 11.9578 4.64 12.01C4.64 12.06 4.64 12.09 4.57 12.14C4.52467 12.2546 4.50094 12.3767 4.5 12.5C4.50094 12.6233 4.52467 12.7453 4.57 12.86C4.57 12.91 4.57 12.94 4.64 12.99C4.66628 13.0421 4.69636 13.0922 4.73 13.14L9.73 19.14C9.82402 19.2529 9.94176 19.3436 10.0748 19.4059C10.2079 19.4681 10.3531 19.5002 10.5 19.5C10.7337 19.5004 10.9601 19.4191 11.14 19.27C11.2413 19.186 11.325 19.0829 11.3863 18.9666C11.4477 18.8502 11.4855 18.7229 11.4975 18.5919C11.5096 18.461 11.4957 18.3289 11.4567 18.2033C11.4176 18.0777 11.3542 17.961 11.27 17.86L7.64 13.5H19.5C19.7652 13.5 20.0196 13.3946 20.2071 13.2071C20.3946 13.0195 20.5 12.7652 20.5 12.5C20.5 12.2348 20.3946 11.9804 20.2071 11.7929C20.0196 11.6053 19.7652 11.5 19.5 11.5Z" fill="#3E5C76"/>
</svg>
