<svg width="15" height="16" viewBox="0 0 15 16" fill="none" xmlns="http://www.w3.org/2000/svg">
<path d="M9.2608 7.99886L14.6306 2.28357C14.8658 2.03271 14.9979 1.69246 14.9979 1.33769C14.9979 0.98291 14.8658 0.642664 14.6306 0.391799C14.3955 0.140934 14.0765 0 13.744 0C13.4114 0 13.0925 0.140934 12.8573 0.391799L7.5 6.12041L2.14268 0.391799C1.90752 0.140934 1.58859 -2.64329e-09 1.25603 0C0.923478 2.64329e-09 0.604543 0.140934 0.369391 0.391799C0.134239 0.642664 0.00213119 0.98291 0.00213119 1.33769C0.00213119 1.69246 0.134239 2.03271 0.369391 2.28357L5.7392 7.99886L0.369391 13.7142C0.252343 13.838 0.159441 13.9853 0.0960411 14.1477C0.0326416 14.31 0 14.4842 0 14.66C0 14.8359 0.0326416 15.01 0.0960411 15.1724C0.159441 15.3347 0.252343 15.4821 0.369391 15.6059C0.485482 15.7308 0.6236 15.8299 0.775777 15.8975C0.927954 15.9652 1.09118 16 1.25603 16C1.42089 16 1.58411 15.9652 1.73629 15.8975C1.88847 15.8299 2.02659 15.7308 2.14268 15.6059L7.5 9.87731L12.8573 15.6059C12.9734 15.7308 13.1115 15.8299 13.2637 15.8975C13.4159 15.9652 13.5791 16 13.744 16C13.9088 16 14.072 15.9652 14.2242 15.8975C14.3764 15.8299 14.5145 15.7308 14.6306 15.6059C14.7477 15.4821 14.8406 15.3347 14.904 15.1724C14.9674 15.01 15 14.8359 15 14.66C15 14.4842 14.9674 14.31 14.904 14.1477C14.8406 13.9853 14.7477 13.838 14.6306 13.7142L9.2608 7.99886Z" fill="white"/>
</svg>
