<svg width="20" height="20" viewBox="0 0 20 20" fill="none" xmlns="http://www.w3.org/2000/svg">
<path d="M17.5844 0H2.41556C1.08153 0 0 1.08153 0 2.41556V17.5844C0 18.9185 1.08153 20 2.41556 20H17.5844C18.9185 20 20 18.9185 20 17.5844V2.41611C20.0005 1.08153 18.919 0 17.5844 0ZM15.3933 10.8807H10.8802V15.3939C10.8802 15.8802 10.4863 16.2741 10 16.2741C9.5137 16.2741 9.11981 15.8802 9.11981 15.3939V10.8807H4.60667C4.12037 10.8807 3.72648 10.4869 3.72648 10.0006C3.72648 9.51425 4.12037 9.12037 4.60667 9.12037H9.11981V4.60722C9.11981 4.12092 9.5137 3.72703 10 3.72703C10.4863 3.72703 10.8802 4.12092 10.8802 4.60722V9.12037H15.3933C15.8796 9.12037 16.2735 9.51425 16.2735 10.0006C16.2735 10.4869 15.8796 10.8807 15.3933 10.8807Z" fill="white"/>
</svg>
