<svg width="20" height="21" viewBox="0 0 20 21" fill="none" xmlns="http://www.w3.org/2000/svg">
<path fill-rule="evenodd" clip-rule="evenodd" d="M10.0223 0.5C7.38503 0.5 4.98189 1.32896 3.5602 2.00624C3.43175 2.06735 3.31206 2.12736 3.20054 2.18514C2.97985 2.29959 2.79185 2.40627 2.64238 2.50017L4.25966 4.76591L5.021 5.05427C7.99633 6.48272 11.9864 6.48272 14.9623 5.05427L15.8264 4.62757L17.3561 2.50017C17.0392 2.30348 16.7096 2.12589 16.3694 1.96846C14.9553 1.2984 12.6099 0.5 10.0223 0.5ZM6.26053 3.06466C5.68783 2.96268 5.1222 2.8276 4.56676 2.66018C5.89854 2.09736 7.88364 1.50008 10.0217 1.50008C11.503 1.50008 12.9036 1.78677 14.062 2.15014C12.7045 2.33182 11.256 2.64018 9.87575 3.01965C8.78978 3.31857 7.52048 3.28634 6.26053 3.06466V3.06466ZM15.5788 5.87823L15.4358 5.94712C12.1621 7.51836 7.82059 7.51836 4.54691 5.94712L4.41146 5.88156C-0.505763 11.0159 -4.25995 20.5 10.0223 20.5C24.3034 20.5 20.4575 10.8386 15.5788 5.87823ZM9.41509 10.5008C9.1054 10.5008 8.80839 10.6179 8.5894 10.8263C8.37041 11.0347 8.24738 11.3173 8.24738 11.612C8.24738 11.9067 8.37041 12.1894 8.5894 12.3978C8.80839 12.6062 9.1054 12.7232 9.41509 12.7232V10.5008ZM10.5828 9.38963V8.83403H9.41509V9.38963C8.7957 9.38963 8.20168 9.62378 7.7637 10.0406C7.32573 10.4573 7.07967 11.0226 7.07967 11.612C7.07967 12.2015 7.32573 12.7667 7.7637 13.1835C8.20168 13.6003 8.7957 13.8344 9.41509 13.8344V16.0569C9.1736 16.0569 8.93803 15.9857 8.74083 15.8531C8.54362 15.7204 8.39448 15.5329 8.31394 15.3162C8.26238 15.1773 8.15492 15.0635 8.01521 14.9999C7.87549 14.9364 7.71497 14.9282 7.56894 14.9773C7.42292 15.0264 7.30337 15.1286 7.23657 15.2616C7.16978 15.3946 7.16123 15.5473 7.21279 15.6863C7.37384 16.1196 7.6721 16.4948 8.06651 16.7602C8.46091 17.0256 8.93206 17.168 9.41509 17.1681V17.7237H10.5828V17.1681C11.2022 17.1681 11.7962 16.9339 12.2342 16.5171C12.6722 16.1003 12.9182 15.5351 12.9182 14.9456C12.9182 14.3562 12.6722 13.791 12.2342 13.3742C11.7962 12.9574 11.2022 12.7232 10.5828 12.7232V10.5008C11.0908 10.5008 11.5234 10.8092 11.6845 11.2415C11.7084 11.3122 11.747 11.3776 11.798 11.4339C11.8489 11.4902 11.9112 11.5362 11.9812 11.5692C12.0511 11.6021 12.1273 11.6214 12.2052 11.6259C12.2832 11.6304 12.3612 11.6199 12.4348 11.5952C12.5084 11.5704 12.5761 11.5319 12.6338 11.4818C12.6915 11.4317 12.738 11.3712 12.7707 11.3037C12.8033 11.2362 12.8214 11.1632 12.8239 11.089C12.8264 11.0147 12.8132 10.9407 12.7851 10.8714C12.624 10.4381 12.3258 10.0629 11.9314 9.7975C11.537 9.53213 11.0658 9.38964 10.5828 9.38963ZM10.5828 13.8344V16.0569C10.8925 16.0569 11.1895 15.9398 11.4085 15.7314C11.6275 15.523 11.7505 15.2404 11.7505 14.9456C11.7505 14.6509 11.6275 14.3683 11.4085 14.1599C11.1895 13.9515 10.8925 13.8344 10.5828 13.8344Z" fill="white"/>
</svg>
