<svg width="20" height="21" viewBox="0 0 20 21" fill="none" xmlns="http://www.w3.org/2000/svg">
<path d="M19.6688 3.30285L17.1594 0.817329C16.9437 0.613634 16.6571 0.5 16.3591 0.5C16.061 0.5 15.7744 0.613634 15.5587 0.817329L13.3273 3.03415H1.35647C0.996713 3.03415 0.651689 3.1757 0.397301 3.42766C0.142914 3.67962 0 4.02135 0 4.37768V19.1565C0 19.5128 0.142914 19.8545 0.397301 20.1065C0.651689 20.3584 0.996713 20.5 1.35647 20.5H16.2777C16.6374 20.5 16.9824 20.3584 17.2368 20.1065C17.4912 19.8545 17.6341 19.5128 17.6341 19.1565V6.90351L19.6688 4.88822C19.8809 4.67788 20 4.39278 20 4.09553C20 3.79829 19.8809 3.51319 19.6688 3.30285ZM10.0582 12.5262L7.21643 13.1509L7.89467 10.3631L14.3718 3.93431L16.5625 6.10411L10.0582 12.5262ZM17.295 5.3383L15.1043 3.1685L16.3591 1.92574L18.5498 4.09553L17.295 5.3383Z" fill="white"/>
</svg>
