<svg width="30" height="30" viewBox="0 0 30 30" fill="none" xmlns="http://www.w3.org/2000/svg">
<path d="M26.575 16.0465H21.8039V13.6046H26.575V16.0465ZM26.575 17.4418H21.8039V19.8837H26.575V17.4418ZM26.575 5.93022H21.8039V8.37206H26.575V5.93028V5.93022ZM26.575 9.76743H21.8039V12.2093H26.575V9.76743ZM26.575 21.279H21.8039V23.721H26.575V21.279V21.279ZM29.8704 26.093C29.7341 26.8186 28.8821 26.836 28.313 26.8605H17.7144V30H15.5981L0 27.2093V2.79421L15.6901 0H17.7144V2.78023H27.9484C28.5244 2.80464 29.1582 2.76278 29.6591 3.11508C30.0102 3.63137 29.9761 4.28721 30 4.88021L29.9863 23.0407C29.9693 24.0558 30.0783 25.0919 29.8704 26.093V26.093ZM12.4968 20.6198C11.5563 18.6663 10.5987 16.7267 9.66146 14.7732C10.5884 12.8721 11.5018 10.964 12.4117 9.0558C11.6381 9.09419 10.8644 9.14301 10.0943 9.19885C9.51832 10.6325 8.84695 12.0279 8.39713 13.5105C7.97795 12.1116 7.42248 10.7651 6.9147 9.40115C6.16494 9.44301 5.41517 9.48836 4.66547 9.5337C5.45607 11.3198 6.29789 13.0813 7.06465 14.8779C6.16154 16.6221 5.31638 18.3907 4.44053 20.1454C5.18683 20.1767 5.9332 20.2082 6.67951 20.2186C7.21119 18.8302 7.8723 17.4942 8.33578 16.0779C8.75156 17.5989 9.45697 19.0047 10.0363 20.4593C10.8577 20.5187 11.6756 20.571 12.4969 20.6198H12.4968ZM28.3746 4.43698H17.7144V5.93022H20.4408V8.37206H17.7144V9.76743H20.4408V12.2093H17.7144V13.6046H20.4408V16.0465H17.7144V17.4418H20.4408V19.8837H17.7144V21.279H20.4408V23.721H17.7144V25.3342H28.3746V4.43698Z" fill="white"/>
</svg>
