<svg width="20" height="19" viewBox="0 0 20 19" fill="none" xmlns="http://www.w3.org/2000/svg">
<path d="M11.5343 0.66925C11.6239 0.683176 11.7132 0.714835 11.797 0.762417C11.8807 0.809999 11.9574 0.87257 12.0225 0.946554L18.9714 8.81823C19.103 8.96735 19.1799 9.15394 19.1851 9.33696C19.1903 9.51997 19.1234 9.68442 18.9991 9.79412C18.3619 10.3566 17.5595 10.3807 16.9719 10.2912C16.7297 10.2529 16.5138 10.1953 16.3412 10.1396L12.1889 13.8051L12.2214 13.9326C12.3039 14.2659 12.3996 14.7276 12.4468 15.2362C12.5391 16.2172 12.4697 17.5589 11.5579 18.3639C11.4336 18.4736 11.2622 18.5195 11.0812 18.4916C10.9003 18.4638 10.7246 18.3643 10.593 18.2152L6.62222 13.7171L2.40525 17.4397C2.14661 17.668 0.777233 18.4287 0.503249 18.1183C0.229266 17.808 1.15392 16.5435 1.41256 16.3152L5.62953 12.5926L1.65875 8.09448C1.52711 7.94536 1.45023 7.75877 1.44501 7.57576C1.4398 7.39274 1.50669 7.2283 1.63095 7.1186C2.54276 6.31369 3.88278 6.4113 4.84373 6.62345C5.31105 6.72854 5.77579 6.87393 6.23274 7.05798L10.385 3.39245C10.3435 3.17679 10.3194 2.96117 10.3129 2.74785C10.2969 2.15369 10.4213 1.35961 11.0576 0.797914C11.119 0.743428 11.1928 0.70402 11.2746 0.681943C11.3564 0.659866 11.4446 0.655553 11.5343 0.66925Z" fill="#0A8EE5"/>
</svg>
