<svg width="10" height="16" viewBox="0 0 10 16" fill="none" xmlns="http://www.w3.org/2000/svg">
<path d="M5.40342 15.7608C6.86004 16.1609 8.27381 16.0408 9.52336 15.5368C10.0375 15.3288 10.1731 14.5608 9.74471 14.1687C8.92894 13.4218 8.27182 12.4807 7.82104 11.4138C7.37025 10.3468 7.1371 9.18086 7.13851 8.00042C7.1371 6.81999 7.37025 5.654 7.82104 4.58708C8.27182 3.52017 8.92894 2.57907 9.74471 1.8321C10.166 1.44008 10.0446 0.672036 9.52336 0.472026C8.78077 0.16801 7.97392 0 7.13851 0C2.81864 0 -0.608689 4.30423 0.0910578 9.28049C0.526614 12.4167 2.65442 15.0088 5.40342 15.7608Z" fill="white"/>
</svg>
