<svg width="25" height="25" viewBox="0 0 25 25" fill="none" xmlns="http://www.w3.org/2000/svg">
<path d="M5.5 13.4987L17.36 13.4987L13.73 17.8587C13.5603 18.063 13.4786 18.3262 13.503 18.5907C13.5274 18.8551 13.6558 19.099 13.86 19.2687C14.0642 19.4385 14.3275 19.5201 14.5919 19.4958C14.8563 19.4714 15.1003 19.343 15.27 19.1387L20.27 13.1387C20.3036 13.091 20.3337 13.0409 20.36 12.9887C20.36 12.9387 20.36 12.9087 20.43 12.8587C20.4753 12.7441 20.4991 12.622 20.5 12.4987C20.4991 12.3754 20.4753 12.2534 20.43 12.1387C20.43 12.0887 20.43 12.0587 20.36 12.0087C20.3337 11.9566 20.3036 11.9065 20.27 11.8587L15.27 5.85872C15.176 5.74582 15.0582 5.65512 14.9252 5.59282C14.7921 5.53062 14.6469 5.49852 14.5 5.49872C14.2663 5.49832 14.0399 5.57962 13.86 5.72872C13.7587 5.81272 13.675 5.91582 13.6137 6.03212C13.5523 6.14852 13.5145 6.27582 13.5025 6.40682C13.4904 6.53772 13.5043 6.66982 13.5433 6.79542C13.5824 6.92102 13.6458 7.03772 13.73 7.13872L17.36 11.4987L5.5 11.4987C5.2348 11.4987 4.9804 11.6041 4.7929 11.7916C4.6054 11.9792 4.5 12.2335 4.5 12.4987C4.5 12.7639 4.6054 13.0183 4.7929 13.2058C4.9804 13.3934 5.2348 13.4987 5.5 13.4987Z" fill="#3E5C76"/>
</svg>
