<svg width="20" height="20" viewBox="0 0 20 20" fill="none" xmlns="http://www.w3.org/2000/svg">
<path d="M16.9423 3.07692H3.14904C2.44647 3.07692 1.77268 3.37071 1.27589 3.89364C0.779094 4.41658 0.5 5.12584 0.5 5.86538V13.4615C0.5 14.1756 0.769471 14.8604 1.24913 15.3653C1.72879 15.8702 2.37935 16.1538 3.05769 16.1538H3.42308V18.0615C3.42308 18.5757 3.6171 19.0687 3.96245 19.4322C4.30781 19.7958 4.77621 20 5.26462 20H14.7354C15.2238 20 15.6922 19.7958 16.0375 19.4322C16.3829 19.0687 16.5769 18.5757 16.5769 18.0615V16.1538H16.9423C17.6206 16.1538 18.2712 15.8702 18.7509 15.3653C19.2305 14.8604 19.5 14.1756 19.5 13.4615V5.76923C19.5 5.05519 19.2305 4.37039 18.7509 3.86548C18.2712 3.36058 17.6206 3.07692 16.9423 3.07692ZM15.1154 18.0615C15.115 18.1675 15.0749 18.269 15.0037 18.344C14.9325 18.4189 14.8361 18.4612 14.7354 18.4615H5.26462C5.16394 18.4612 5.0675 18.4189 4.99631 18.344C4.92513 18.269 4.88498 18.1675 4.88462 18.0615V10.4C4.88498 10.294 4.92513 10.1925 4.99631 10.1176C5.0675 10.0426 5.16394 10.0004 5.26462 10H14.7354C14.8361 10.0004 14.9325 10.0426 15.0037 10.1176C15.0749 10.1925 15.115 10.294 15.1154 10.4V18.0615ZM16.3029 7.68846C16.0793 7.70738 15.8556 7.65364 15.662 7.53451C15.4683 7.41539 15.3141 7.23659 15.22 7.02227C15.1259 6.80794 15.0966 6.56839 15.1359 6.33596C15.1752 6.10352 15.2814 5.88938 15.44 5.72243C15.5986 5.55549 15.802 5.44377 16.0228 5.40236C16.2436 5.36096 16.4712 5.39185 16.6748 5.49087C16.8784 5.58989 17.0483 5.75228 17.1614 5.95612C17.2746 6.15996 17.3257 6.39543 17.3077 6.63077C17.2868 6.90396 17.1743 7.16042 16.9902 7.35422C16.8061 7.54802 16.5624 7.6665 16.3029 7.68846ZM14.0192 0H5.98077C5.36601 0.000963602 4.77208 0.234597 4.30739 0.658256C3.8427 1.08192 3.53823 1.66735 3.44957 2.30769H16.5504C16.4618 1.66735 16.1573 1.08192 15.6926 0.658256C15.2279 0.234597 14.634 0.000963602 14.0192 0Z" fill="white"/>
</svg>
