<svg width="17" height="18" viewBox="0 0 17 18" fill="none" xmlns="http://www.w3.org/2000/svg">
<path d="M9.5 2.5C9.5 2.10218 9.34196 1.72064 9.06066 1.43934C8.77936 1.15804 8.39782 1 8 1C7.60218 1 7.22064 1.15804 6.93934 1.43934C6.65804 1.72064 6.5 2.10218 6.5 2.5H9.5ZM5.5 2.5C5.5 1.83696 5.76339 1.20107 6.23223 0.732233C6.70107 0.263392 7.33696 0 8 0C8.66304 0 9.29893 0.263392 9.76777 0.732233C10.2366 1.20107 10.5 1.83696 10.5 2.5H15.5C15.6326 2.5 15.7598 2.55268 15.8536 2.64645C15.9473 2.74021 16 2.86739 16 3C16 3.13261 15.9473 3.25979 15.8536 3.35355C15.7598 3.44732 15.6326 3.5 15.5 3.5H14.446L13.961 7.696C12.8336 7.38487 11.6364 7.44121 10.5433 7.85683C9.45008 8.27245 8.51785 9.02571 7.88194 10.0072C7.24602 10.9887 6.93954 12.1474 7.00698 13.315C7.07443 14.4826 7.5123 15.5982 8.257 16.5H5.728C4.99195 16.4999 4.28161 16.2293 3.73214 15.7396C3.18266 15.2498 2.8324 14.5752 2.748 13.844L1.554 3.5H0.5C0.367392 3.5 0.240215 3.44732 0.146447 3.35355C0.0526785 3.25979 0 3.13261 0 3C0 2.86739 0.0526785 2.74021 0.146447 2.64645C0.240215 2.55268 0.367392 2.5 0.5 2.5H5.5ZM12.5 17.5C13.6935 17.5 14.8381 17.0259 15.682 16.182C16.5259 15.3381 17 14.1935 17 13C17 11.8065 16.5259 10.6619 15.682 9.81802C14.8381 8.97411 13.6935 8.5 12.5 8.5C11.3065 8.5 10.1619 8.97411 9.31802 9.81802C8.47411 10.6619 8 11.8065 8 13C8 14.1935 8.47411 15.3381 9.31802 16.182C10.1619 17.0259 11.3065 17.5 12.5 17.5V17.5ZM11.604 11.104L10.707 12H12.25C12.9793 12 13.6788 12.2897 14.1945 12.8055C14.7103 13.3212 15 14.0207 15 14.75V15C15 15.1326 14.9473 15.2598 14.8536 15.3536C14.7598 15.4473 14.6326 15.5 14.5 15.5C14.3674 15.5 14.2402 15.4473 14.1464 15.3536C14.0527 15.2598 14 15.1326 14 15V14.75C14 14.2859 13.8156 13.8408 13.4874 13.5126C13.1592 13.1844 12.7141 13 12.25 13H10.707L11.604 13.896C11.6979 13.9899 11.7506 14.1172 11.7506 14.25C11.7506 14.3828 11.6979 14.5101 11.604 14.604C11.5101 14.6979 11.3828 14.7506 11.25 14.7506C11.1172 14.7506 10.9899 14.6979 10.896 14.604L9.144 12.851C9.0509 12.7572 8.99882 12.6303 8.99919 12.4981C8.99957 12.3659 9.05237 12.2393 9.146 12.146L10.896 10.396C10.9899 10.3021 11.1172 10.2494 11.25 10.2494C11.3828 10.2494 11.5101 10.3021 11.604 10.396C11.6979 10.4899 11.7506 10.6172 11.7506 10.75C11.7506 10.8828 11.6979 11.0101 11.604 11.104V11.104Z" fill="white"/>
</svg>
