<svg width="22" height="23" viewBox="0 0 22 23" fill="none" xmlns="http://www.w3.org/2000/svg">
<path d="M13.73 11.3109C12.76 11.8309 11.92 12.5709 11.29 13.4609L9.55 10.1309L5.66 14.0009L6 16.5009L4.95 17.5609L3.18 14.3709L0 12.6109L1.06 11.5509L3.54 11.9009L7.43 8.00091L0 4.12091L1.41 2.71091L10.61 4.83091L14.5 0.940908C14.6386 0.800618 14.8036 0.689234 14.9856 0.613213C15.1676 0.537192 15.3628 0.498047 15.56 0.498047C15.7572 0.498047 15.9524 0.537192 16.1344 0.613213C16.3164 0.689234 16.4814 0.800618 16.62 0.940908C17.2 1.53091 17.2 2.50091 16.62 3.06091L12.73 6.95091L13.73 11.3109ZM21.8 18.9009C21.9 18.9009 21.9 19.0009 21.8 19.1009L20.8 20.8009C20.7 20.9009 20.6 20.9009 20.5 20.9009L19.3 20.5009C19 20.7009 18.8 20.8009 18.5 21.0009L18.3 22.3009C18.3 22.4009 18.2 22.5009 18.1 22.5009H16.1C16 22.5009 15.9 22.4009 15.8 22.3009L15.6 21.0009C15.3 20.9009 15 20.7009 14.8 20.5009L13.6 21.0009C13.5 21.0009 13.4 21.0009 13.3 20.9009L12.3 19.2009C12.2 19.1009 12.3 19.0009 12.4 18.9009L13.5 18.1009V17.1009L12.4 16.3009C12.3 16.2009 12.3 16.1009 12.3 16.0009L13.3 14.3009C13.4 14.2009 13.5 14.2009 13.6 14.2009L14.8 14.7009C15.1 14.5009 15.3 14.4009 15.6 14.2009L15.8 12.9009C15.8 12.8009 15.9 12.7009 16.1 12.7009H18.1C18.2 12.7009 18.3 12.8009 18.3 12.9009L18.5 14.2009C18.8 14.3009 19.1 14.5009 19.4 14.7009L20.6 14.2009C20.7 14.2009 20.9 14.2009 20.9 14.3009L21.9 16.0009C22 16.1009 21.9 16.2009 21.8 16.3009L20.7 17.1009V18.1009L21.8 18.9009ZM18.5 17.5009C18.5 16.7009 17.8 16.0009 17 16.0009C16.2 16.0009 15.5 16.7009 15.5 17.5009C15.5 18.3009 16.2 19.0009 17 19.0009C17.8 19.0009 18.5 18.3009 18.5 17.5009Z" fill="white"/>
</svg>
