<svg width="22" height="22" viewBox="0 0 22 22" fill="none" xmlns="http://www.w3.org/2000/svg">
<path fill-rule="evenodd" clip-rule="evenodd" d="M5.73639 0.292905C6.08788 0.683425 6.08788 1.31658 5.73639 1.7071L3.6728 4H13.2C17.6735 4 21.3 8.02944 21.3 13C21.3 17.9706 17.6735 22 13.2 22H6C5.50295 22 5.1 21.5522 5.1 21C5.1 20.4478 5.50295 20 6 20H13.2C16.6794 20 19.5 16.866 19.5 13C19.5 9.134 16.6794 6 13.2 6H3.6728L5.73639 8.2929C6.08788 8.68342 6.08788 9.31658 5.73639 9.7071C5.38492 10.0976 4.81508 10.0976 4.46361 9.7071L0.863613 5.7071C0.512127 5.31658 0.512127 4.68342 0.863613 4.2929L4.46361 0.292905C4.81508 -0.097635 5.38492 -0.097635 5.73639 0.292905Z" fill="white"/>
</svg>
