<svg width="29" height="67" viewBox="0 0 29 67" fill="none" xmlns="http://www.w3.org/2000/svg">
<path d="M13.5081 39.9999C13.5081 39.9999 15.7852 30.597 15.5081 24.4999C15.2264 18.3008 11.8121 15.2024 12.0081 8.99994C12.1802 3.55628 14.789 5.44638 14.789 0" stroke="black" stroke-width="4"/>
<mask id="path-2-inside-1_305_1222" fill="white">
<path d="M29 52.5C29 50.5958 28.6249 48.7103 27.8963 46.9511C27.1676 45.1919 26.0995 43.5934 24.753 42.247C23.4066 40.9005 21.8081 39.8324 20.0489 39.1037C18.2897 38.3751 16.4042 38 14.5 38C12.5958 38 10.7103 38.3751 8.95109 39.1037C7.19187 39.8324 5.5934 40.9005 4.24695 42.247C2.9005 43.5934 1.83244 45.1919 1.10375 46.9511C0.375053 48.7103 -1.66468e-07 50.5958 0 52.5H6.97515C6.97515 51.5118 7.16979 50.5333 7.54794 49.6204C7.9261 48.7074 8.48038 47.8779 9.17913 47.1791C9.87787 46.4804 10.7074 45.9261 11.6204 45.5479C12.5333 45.1698 13.5118 44.9751 14.5 44.9751C15.4882 44.9751 16.4667 45.1698 17.3796 45.5479C18.2926 45.9261 19.1221 46.4804 19.8209 47.1791C20.5196 47.8779 21.0739 48.7074 21.4521 49.6204C21.8302 50.5333 22.0249 51.5118 22.0249 52.5H29Z"/>
</mask>
<path d="M29 52.5C29 50.5958 28.6249 48.7103 27.8963 46.9511C27.1676 45.1919 26.0995 43.5934 24.753 42.247C23.4066 40.9005 21.8081 39.8324 20.0489 39.1037C18.2897 38.3751 16.4042 38 14.5 38C12.5958 38 10.7103 38.3751 8.95109 39.1037C7.19187 39.8324 5.5934 40.9005 4.24695 42.247C2.9005 43.5934 1.83244 45.1919 1.10375 46.9511C0.375053 48.7103 -1.66468e-07 50.5958 0 52.5H6.97515C6.97515 51.5118 7.16979 50.5333 7.54794 49.6204C7.9261 48.7074 8.48038 47.8779 9.17913 47.1791C9.87787 46.4804 10.7074 45.9261 11.6204 45.5479C12.5333 45.1698 13.5118 44.9751 14.5 44.9751C15.4882 44.9751 16.4667 45.1698 17.3796 45.5479C18.2926 45.9261 19.1221 46.4804 19.8209 47.1791C20.5196 47.8779 21.0739 48.7074 21.4521 49.6204C21.8302 50.5333 22.0249 51.5118 22.0249 52.5H29Z" stroke="black" stroke-width="14" mask="url(#path-2-inside-1_305_1222)"/>
</svg>
