<?xml version="1.0" encoding="UTF-8" standalone="no"?>
<svg id="svg4137" xmlns:rdf="http://www.w3.org/1999/02/22-rdf-syntax-ns#" xmlns="http://www.w3.org/2000/svg" height="2350.9" viewBox="0 0 3352.0467 2350.8748" width="3352" version="1.1" xmlns:cc="http://creativecommons.org/ns#" xmlns:xlink="http://www.w3.org/1999/xlink" xmlns:dc="http://purl.org/dc/elements/1.1/">
<defs id="defs4141">
<filter id="filter4699" style="color-interpolation-filters:sRGB" height="1.0203" width="1.0293" y="-.010171" x="-.014630">
<feGaussianBlur id="feGaussianBlur4701" stdDeviation="13.923148"/>
</filter>
</defs>
<g id="g7536">
<path id="path4689" d="m82.308 3282.2c-0.989-39.5-35.333-76.2-71.441-76.2h-4.84v-41.5-41.5h3.5422c92.315 0 95.886-150.89 3.7559-158.68l-7.2981-0.6169v-32.673-32.673l8.8309-1.1757c88.423-11.773 89.723-143.65 1.5575-157.99l-10.386-1.7v-36.75-36.75h3.5422c92.358 0 95.93-150.88 3.7559-158.68l-7.2981-0.6169v-41.353-41.353h3.5422c32.139 0 63.994-28.277 71.534-63.5 9.82-45.9-27.203-95.5-71.26-95.5h-3.8163v-41.362-41.362l6.75-0.6838c91.162-9.2343 91.652-150.57 0.5481-158.27l-7.2981-0.6169v-41.206-41.206l7.385-0.6243c90.231-7.6273 90.222-150.71-0.011-158.34l-7.3744-0.6234v-36.728-36.728l3.125-0.625c1.7187-0.3437 4.3367-0.625 5.8176-0.625 15.126 0 39.423-14.074 50.863-29.463 36.836-49.549 8.7414-120.77-50.766-128.69l-9.0395-1.2035v-40.703-40.703l2.25-0.603c1.2375-0.3317 3.7962-0.6091 5.6861-0.6166 16.181-0.064 39.8-13.527 51.767-29.507 37.492-50.063 7.6121-122.91-52.954-129.09l-6.75-0.6896v-36.682-36.682l8.8309-1.1757c89.495-11.916 88.546-150.57-1.0809-157.85l-7.75-0.6295v-41.214-41.214l6.3299-0.64852c92.07-9.5 90.76-158.69-1.395-158.69h-4.938v-37.5-37.5h5.34c91.384 0 92.718-150.07 1.41-158.65l-6.75-0.63475v-32.71-32.71l7.25-0.61685c91.283-7.77 88.713-158.68-2.698-158.68h-4.5526v-32.79-32.79l10.298-1.6335c88.403-14.023 86.169-151.44-2.5612-157.54l-7.763-0.54 0.2633-33.1 0.2633-33.11 7.5-0.62505c32.938-2.745 62.331-31.558 67.525-66.194l0.702-4.681h47.271 47.271l0.6629 5.3058c10.95 87.639 135.92 86.352 151.01-1.556l0.644-3.75h40.26 40.26l1.2244 7.25c14.002 82.909 130.79 84.897 149.36 2.5429l2.21-9.793h36.299 36.299v2.34c0 9.6788 8.5936 29.835 17.328 40.644 40.863 50.564 120.38 29.68 133.36-35.025l1.59-7.959h36.163 36.163l1.2244 7.25c14.148 83.778 133.05 84.479 149.82 0.8843l1.6-8.134h36.154 36.154l1.2218 7.1251c14.55 84.85 135.48 84.23 150.28-0.76985l1.1-6.355h36.397 36.397v2.3117c0 14.445 13.656 39.571 27.915 51.362 45.258 37.423 112.93 11.535 123.15-47.106l1.1-6.568h40.172 40.172l1.7914 8.75c13.295 64.937 94.403 84.776 134.14 32.81 8.2025-10.728 16.523-30.729 16.523-39.72 0-1.7487 1.6-1.84 32.3-1.84h32.275l1.7191 8.3518c15.164 73.667 111.24 86.001 143.27 18.392 3.2523-6.8649 7.4638-20.917 7.4638-24.904 0-1.7563 1.9-1.84 40.4-1.84h40.386l0.7019 4.6808c13.122 87.501 137.93 87.501 151.05 0l0.7-4.681 32.136 0.0001022 32.136 0.0001022 0.1774 10.25c0.7219 41.71 34.737 77.65 73.573 77.735l6.75 0.01478v33.031c0 25.576-0.2821 33.109-1.25 33.373-0.6875 0.18811-4.175 0.8824-7.75 1.5429-80.196 14.816-79.773 140.34 0.5257 155.91l8.4677 1.6422v37.205 37.205l-3.75 0.64403c-53.208 9.1381-81.66 65.77-57.75 114.95 11.576 23.808 29.363 36.816 58.75 42.963l2.75 0.57524v32.936 32.936l-3.75 0.59531c-85.611 13.591-87.911 141.56-2.8351 157.7l6.5851 1.2492v37.169 37.169l-6.6022 1.1497c-83.37 14.518-82.649 147.04 0.8522 156.65l5.75 0.6616v41.768 41.768l-6.75 1.1726c-83.357 14.481-82.634 144.77 0.8708 156.79l5.3792 0.7739 0.2618 37.513 0.2618 37.513-6.8291 1.0753c-52.942 8.3364-80.993 76.343-50.392 122.17 13.163 19.714 37.111 35.198 54.439 35.198h2.781l-0.2609 41.694-0.261 41.694-7.5 1.3684c-51.829 9.4559-78.704 73.815-50.328 120.53 11.652 19.182 38.186 36.718 55.558 36.718h2.7701v37.455 37.455l-3.75 0.6161c-88.653 14.565-87.852 141.13 1 157.99l2.75 0.5217v41.436 41.436l-3.75 0.6161c-89.183 14.652-87.988 140.61 1.5 158.07l2.25 0.4391v41.462 41.462l-2.75 0.5217c-40.865 7.7524-67.25 38.754-67.25 79.016 0 40.3 26.347 71.257 67.25 79.016l2.75 0.5217v41.462 41.462l-2.75 0.5217c-88.901 16.865-89.702 143.42-1 157.99l3.75 0.6161v37.205 37.205l-8.4677 1.6422c-80.17 15.548-80.594 141.31-0.5257 155.92 3.575 0.6523 7.0625 1.34 7.75 1.5281 0.9678 0.2648 1.25 7.7883 1.25 33.328v32.986l-3.75 0.6161c-86.557 14.22-88.16 140.47-2 157.48l5.75 1.1355v36.785 36.785l-8.25 0.6847c-36.224 3.0064-62.939 27.718-71.193 65.853l-0.5952 2.75h-32.462-32.462l-0.5952-2.75c-8.6786-40.097-37.999-65.588-75.443-65.588-37.472 0-66.758 25.46-75.443 65.588l-0.5952 2.75h-40.512c-31.573 0-40.583-0.2758-40.832-1.25-0.1758-0.6875-1.0699-4.4-1.9868-8.25-18.498-77.675-130.95-77.294-147.63 0.5-0.6483 3.025-1.3948 6.2875-1.6588 7.25-0.6214 2.2652-65.151 2.7561-65.728 0.5-0.1758-0.6875-1.0699-4.4-1.9868-8.25-19.507-81.91-130.98-76.863-149.07 6.75l-0.5952 2.75h-40.512c-31.547 0-40.594-0.2766-40.88-1.25-0.202-0.6875-1.0832-4.4-1.9582-8.25-16.419-72.239-116.12-79.512-143.92-10.5-2.3703 5.8827-3.1087 8.3769-5.1071 17.25l-0.6193 2.75h-36.512c-28.347 0-36.594-0.2795-36.88-1.25-0.202-0.6875-1.094-4.4-1.9823-8.25-18.36-79.578-132.17-76.705-148.56 3.75l-1.1713 5.75h-36.46c-28.306 0-36.543-0.2796-36.828-1.25-0.202-0.6875-1.0915-4.3747-1.9768-8.1939-18.104-78.1-134.98-76.566-148.1 1.9439-1.3938 8.3435 2.7505 7.5559-38.214 7.2622l-36.578-0.2622-1.8149-7.6926c-19.11-80.998-132.04-79.136-148.85 2.4548l-1.1867 5.7623-36.576-0.2623-36.576-0.2622-1.8149-7.6926c-19.112-81.007-132.04-79.154-148.84 2.4426l-1.1841 5.75h-40.701-40.701l-1.2337-6.5037c-15.555-81.999-132.26-81.41-149.18 0.7537l-1.1841 5.75-47.179-0.01-47.179-0.01-0.2185-8.7446z" transform="matrix(0 1 1 0 27.416 27.416)" filter="url(#filter4699)"/>
<path id="path4687" d="m3303.7 103.72c-39.592-0.9891-76.244-35.333-76.244-71.442v-4.84h-41.5-41.5v3.5422c0 92.315-150.89 95.886-158.68 3.7559l-0.6169-7.2981h-32.673-32.673l-1.1757 8.8309c-11.773 88.423-143.65 89.723-157.99 1.5575l-1.6896-10.385h-36.75-36.75v3.5422c0 92.358-150.88 95.93-158.68 3.7559l-0.6169-7.2981h-41.353-41.353v3.5422c0 32.139-28.277 63.994-63.5 71.534-45.882 9.8209-95.5-27.203-95.5-71.259v-3.8163h-41.362-41.362l-0.6838 6.75c-9.2343 91.163-150.57 91.652-158.27 0.5481l-0.6169-7.2981h-41.206-41.206l-0.6243 7.385c-7.6273 90.231-150.71 90.222-158.34-0.011l-0.6234-7.3744h-36.728-36.728l-0.625 3.125c-0.3437 1.7188-0.625 4.3367-0.625 5.8176 0 15.126-14.074 39.423-29.463 50.863-49.549 36.837-120.77 8.7414-128.69-50.766l-1.2035-9.0395h-40.703-40.703l-0.603 2.25c-0.3317 1.2375-0.6091 3.7963-0.6166 5.6861-0.064 16.181-13.527 39.8-29.507 51.767-50.063 37.492-122.91 7.6121-129.09-52.954l-0.6896-6.75h-36.682-36.682l-1.1757 8.8309c-11.916 89.495-150.57 88.546-157.85-1.0809l-0.6295-7.75h-41.214-41.214l-0.6485 6.3299c-9.4334 92.073-158.63 90.764-158.63-1.3948v-4.938h-37.5-37.5v5.34c0 91.384-150.07 92.718-158.65 1.41l-0.63475-6.75h-32.71-32.71l-0.61685 7.25c-7.7664 91.281-158.68 88.716-158.68-2.6974v-4.5526h-32.79-32.79l-1.6335 10.298c-14.08 88.404-151.5 86.174-157.6-2.557l-0.53355-7.7633-33.106 0.2633-33.106 0.2633-0.62505 7.5c-2.7451 32.939-31.558 62.331-66.194 67.525l-4.6808 0.7019v47.271 47.271l5.3058 0.6629c87.639 10.95 86.352 135.92-1.5558 151.01l-3.75 0.644v40.26 40.26l7.25 1.2244c82.909 14.002 84.897 130.79 2.5429 149.36l-9.7929 2.2085v36.299 36.299h2.34c9.6788 0 29.835 8.5936 40.644 17.328 50.564 40.863 29.68 120.38-35.025 133.36l-7.9591 1.5963v36.163 36.163l7.25 1.2244c83.778 14.148 84.479 133.05 0.8843 149.82l-8.1343 1.6315v36.154 36.154l7.1251 1.2218c84.85 14.55 84.23 135.48-0.76985 150.28l-6.3553 1.1067v36.397 36.397h2.3117c14.445 0 39.571 13.656 51.362 27.915 37.423 45.258 11.535 112.93-47.106 123.15l-6.5676 1.1437v40.172 40.172l8.75 1.7914c64.937 13.295 84.776 94.403 32.81 134.14-10.728 8.2025-30.729 16.523-39.72 16.523-1.7487 0-1.84 1.6019-1.84 32.275v32.275l8.3518 1.7191c73.667 15.164 86.001 111.24 18.392 143.27-6.8649 3.2523-20.917 7.4638-24.904 7.4638-1.7563 0-1.84 1.837-1.84 40.386v40.386l4.6808 0.7019c87.501 13.122 87.501 137.93 0 151.05l-4.6808 0.7019 0.000102 32.136 0.000102 32.136 10.25 0.1774c41.71 0.7219 77.65 34.737 77.735 73.573l0.0148 6.75h33.031c25.576 0 33.109-0.2821 33.373-1.25 0.18811-0.6875 0.8824-4.175 1.5429-7.75 14.816-80.196 140.34-79.773 155.91 0.5257l1.6422 8.4677h37.205 37.205l0.64403-3.75c9.1381-53.208 65.77-81.66 114.95-57.75 23.808 11.576 36.816 29.363 42.963 58.75l0.57524 2.75h32.936 32.936l0.59531-3.75c13.591-85.611 141.56-87.911 157.7-2.8351l1.2492 6.5851h37.169 37.169l1.1497-6.6022c14.518-83.37 147.04-82.649 156.65 0.8522l0.6616 5.75h41.768 41.768l1.1726-6.75c14.481-83.357 144.77-82.634 156.79 0.8708l0.7739 5.3792 37.513 0.2618 37.513 0.2618 1.0753-6.8291c8.3364-52.942 76.343-80.993 122.17-50.392 19.714 13.163 35.198 37.111 35.198 54.439v2.781l41.694-0.2609 41.694-0.261 1.3684-7.5c9.4559-51.829 73.815-78.704 120.53-50.328 19.182 11.652 36.718 38.186 36.718 55.558v2.7701h37.455 37.455l0.6161-3.75c14.565-88.653 141.13-87.852 157.99 1l0.5217 2.75h41.436 41.436l0.6161-3.75c14.652-89.183 140.61-87.988 158.07 1.5l0.4391 2.25h41.462 41.462l0.5217-2.75c7.7524-40.865 38.754-67.25 79.016-67.25 40.3 0 71.257 26.347 79.016 67.25l0.5217 2.75h41.462 41.462l0.5217-2.75c16.865-88.901 143.42-89.702 157.99-1l0.6161 3.75h37.205 37.205l1.6422-8.4677c15.548-80.17 141.31-80.594 155.92-0.5257 0.6523 3.575 1.34 7.0625 1.5281 7.75 0.2648 0.9678 7.7883 1.25 33.328 1.25h32.986l0.6161-3.75c14.22-86.557 140.47-88.16 157.48-2l1.1355 5.75h36.785 36.785l0.6847-8.25c3.0064-36.224 27.718-62.939 65.853-71.193l2.75-0.5952v-32.462-32.462l-2.75-0.5952c-40.097-8.6786-65.588-37.999-65.588-75.443 0-37.472 25.46-66.758 65.588-75.443l2.75-0.5952v-40.512c0-31.573-0.2758-40.583-1.25-40.832-0.6875-0.1758-4.4-1.0699-8.25-1.9868-77.675-18.498-77.294-130.95 0.5-147.63 3.025-0.6483 6.2875-1.3948 7.25-1.6588 2.2652-0.6214 2.7561-65.151 0.5-65.728-0.6875-0.1758-4.4-1.0699-8.25-1.9868-81.91-19.507-76.863-130.98 6.75-149.07l2.75-0.5952v-40.512c0-31.547-0.2766-40.594-1.25-40.88-0.6875-0.202-4.4-1.0832-8.25-1.9582-72.239-16.419-79.512-116.12-10.5-143.92 5.8827-2.3703 8.3769-3.1087 17.25-5.1071l2.75-0.6193v-36.512c0-28.347-0.2795-36.594-1.25-36.88-0.6875-0.202-4.4-1.094-8.25-1.9823-79.578-18.36-76.705-132.17 3.75-148.56l5.75-1.1713v-36.46c0-28.306-0.2796-36.543-1.25-36.828-0.6875-0.202-4.3747-1.0915-8.1939-1.9768-78.1-18.104-76.566-134.98 1.9439-148.1 8.3435-1.3938 7.5559 2.7505 7.2622-38.214l-0.2622-36.578-7.6926-1.8149c-80.998-19.11-79.136-132.04 2.4548-148.85l5.7623-1.1867-0.2623-36.576-0.2622-36.576-7.6926-1.8149c-81.007-19.112-79.154-132.04 2.4426-148.84l5.75-1.1841v-40.701-40.701l-6.5037-1.2337c-81.999-15.555-81.41-132.26 0.7537-149.18l5.75-1.1841-0.01-47.179-0.01-47.179-8.7446-0.2185z" fill="#f2f2f2"/>
<g id="g4341" transform="matrix(4.7758 0 0 4.9593 177.58 180.4)">
<rect id="rect4" height="400" width="625" y="0" x="0" fill="#032ea1"/>
<rect id="rect6" height="200" width="625" y="100" x="0" fill="#e00025"/>
<g id="g8" transform="translate(117.14 -434.93)" stroke="#000" stroke-width="0.96" fill="#fff">
<g id="g10" stroke-linejoin="bevel">
<path id="path12" d="m139.02 623.46h113.8v43.788h-113.8z"/>
<rect id="rect14" y="647.64" width="3.5864" x="246.95" height="16.495"/>
<rect id="rect16" y="639.49" width="113.8" x="139.02" height="5.0903"/>
<rect id="rect18" y="632.59" width="113.8" x="139.02" height="4.489"/>
<rect id="rect20" height="4.354" width="113.8" y="625.7" x="139.02" stroke-width=".94545"/>
<rect id="rect22" y="647.64" width="3.5864" x="168.98" height="16.495"/>
<rect id="rect24" y="647.64" width="3.5864" x="217.97" height="16.495"/>
<rect id="rect26" y="647.64" width="3.5864" x="139.92" height="16.495"/>
<rect id="rect28" y="647.64" width="3.5864" x="146.95" height="16.495"/>
<rect id="rect30" y="647.64" width="3.5864" x="154.45" height="16.495"/>
<rect id="rect32" y="647.64" width="3.5864" x="161.95" height="16.495"/>
<rect id="rect34" y="647.64" width="3.5864" x="224.77" height="16.495"/>
<rect id="rect36" y="647.64" width="3.5864" x="232.27" height="16.495"/>
<rect id="rect38" y="647.64" width="3.5864" x="239.77" height="16.495"/>
<path id="path40" stroke-linejoin="miter" d="m94.509 669.55c1.7604-0.89672 3.7684-2.9836 4.425-5.319h193.07c0.65665 2.3354 2.6647 4.4222 4.425 5.319z"/>
</g>
<g id="g42">
<g id="g44">
<path id="path46" d="m193 556.8s-0.14437-4.1125 2.2507-4.1572c2.3951 0.0447 2.2507 4.1572 2.2507 4.1572z"/>
<path id="path48" d="m180.51 611.34v-5.5357c-0.0789-2.768-2.7591-2.9681-2.838-4.9862 0 0-0.34606-3.0266 0.45159-4.4082 1.0845 4.0474 3.0561 3.3039 3.0561 1.6397 0-1.4526-1.117-2.8031-3.408-6.3302-0.73206-1.127-0.27901-4.6597 0.74692-5.9224 0.39808 3.0709 0.85311 4.5398 2.1717 4.5398 0.80428 0 1.4612-0.52417 1.4612-2.0621 0-1.9565-1.325-2.9445-1.9762-4.725-0.76004-2.0777-0.23675-4.1957 1.0259-5.3795 0.54129 3.0293 0.38028 4.2372 1.7255 4.2372 2.7133-0.8584 0.00063-4.7866-0.57911-5.7773-0.667-1.1553 0.89682-3.4598 0.89682-3.4598 0.86209 2.6898 1.1394 2.909 2.0699 2.6597 1.1738-0.31452 1.0224-2.056-0.40996-3.4633-0.90449-0.88866-0.80857-2.2116 0.16248-3.274 0.97489 1.9056 2.2229 1.7898 2.343 0.65821l-0.78373-4.3931h17.255l-0.85683 4.2488c-0.24526 1.2162 1.396 1.4801 2.4162-0.51392 0.97105 1.0624 1.067 2.3854 0.16248 3.274-1.4323 1.4073-1.5837 3.1488-0.40996 3.4633 0.93041 0.2493 1.2078 0.0302 2.0699-2.6597 0 0 1.403 1.5708 0.89682 3.4598-0.57974 0.99071-3.2924 4.9189-0.57911 5.7773 1.3453 0 1.1842-1.2079 1.7255-4.2372 1.2627 1.1838 1.786 3.3017 1.0259 5.3795-0.65127 1.7804-1.9762 2.7685-1.9762 4.725 0 1.538 0.65688 2.0621 1.4612 2.0621 1.3186 0 1.7736-1.4689 2.1717-4.5398 1.0259 1.2627 1.479 4.7953 0.74692 5.9224-2.291 3.527-3.408 4.8776-3.408 6.3302 0 1.6641 1.9716 2.4076 3.0561-1.6397 0.79765 1.3816 0.4516 4.4082 0.4516 4.4082-0.0789 2.018-2.7591 2.2182-2.838 4.9862v5.5357z"/>
<path id="path50" d="m187.73 565.32-0.39721-3.125h15.838l-0.39721 3.125z"/>
<path id="path52" d="m188.79 562.13-0.34117-2.5686h13.604l-0.34117 2.5686z"/>
<path id="path54" d="m190.95 559.47-0.22717-2.5686h9.0585l-0.22718 2.5686z"/>
<path id="path56" d="m223.97 669.55c-2.0266-0.78125-4.9773-2.9188-4.9773-5.0695v-24.297l2.6385-3.3588-52.776 0.00008 2.5293 3.3588v24.297c0 2.1508-2.0264 4.2883-4.0529 5.0695z"/>
<rect id="rect58" stroke-linejoin="bevel" height="16.495" width="3.5864" y="647.64" x="178.24"/>
<rect id="rect60" stroke-linejoin="bevel" height="16.495" width="3.5864" y="647.64" x="208.56"/>
<path id="path62" d="m167.91 609.17v14.648 7.0117 5.9961h54.023v-5.957l0.0783-21.699c-2.2097 0.8681-2.5976 2.8711-2.5976 2.8711v11.777h-48.75v-11.777s-0.5442-2.003-2.7539-2.8711z"/>
<path id="path64" d="m214.6 669.55c-1.7655-0.78125-5.6118-2.9188-5.6118-5.0695v-27.192c0.37751-1.518 2.436-2.414 3.761-3.3588h-35.823c1.7049 0.90271 3.6054 1.6522 4.2846 3.3588v27.192c0 2.1508-3.041 4.2883-4.8065 5.0695z"/>
<path id="path66" d="m219.41 634.22-0.00027-19.587-4.9104-0.00008v-1.9085h-38.839v1.9085l-4.9109-0.00018 0.00017 19.587z"/>
<path id="path68" d="m206.86 669.55c-1.7299-0.78125-4.2489-2.9186-4.2489-5.0694v-23.215l1.4205-2.1088h-17.691l1.4205 2.109v23.215c0 2.1508-2.5189 4.2883-4.2488 5.0695z"/>
<path id="path70" stroke-width="0.981" d="m190.71 639.16 8.9655-0.00005v30.377h-8.9655z"/>
<path id="path72" stroke-linejoin="bevel" d="m204.38 632.48c0.0215-2.0012 5.8375-2.091 8.8318-3.7949h-35.952c2.9943 1.7039 8.6755 1.8441 8.6755 3.7949l1.2166 3.8818 14.883 0.59776z"/>
<path id="path74" d="m211.41 611.34c0-4.8986 0.20532-6.7857 1.7103-6.7857l0.00001 15.58c-3.6912 1.3393-6.3254 6.0491-6.3254 6.0491l-23.211-0.00027s-2.6342-4.7096-6.3254-6.0488v-15.58c1.856 0 1.8682 1.9717 1.8682 6.7857z"/>
<path id="path76" d="m213.12 609.33c0-5.6184 4.8512-6.2503 4.8512-6.2503v5c-1.8465-0.0789-2.7368 1.578-2.7368 4.0444 0 2.4663 1.4868 2.5056 1.4868 2.5056v14.19h-3.6012z"/>
<path id="path78" d="m177.28 609.33c0-5.6184-4.8512-6.2503-4.8512-6.2503v5c1.8465-0.0789 2.7368 1.578 2.7368 4.0444 0 2.4663-1.4868 2.5056-1.4868 2.5056v14.19h3.6012z"/>
</g>
<g id="g80" stroke-width="0.8" fill="none">
<path id="path82" d="m186.84 570.62h17.128"/>
<path id="path84" d="m184.81 575.97h20.921"/>
<path id="path86" d="m182.78 582.46h24.904"/>
<path id="path88" d="m180.66 590.39h29.536"/>
<path id="path90" d="m179.98 599.43h30.426"/>
<path id="path92" stroke-width="0.96" d="m170.75 628.92h48.661"/>
<rect id="rect94" height="6.6291" width="18.036" y="628.93" x="186.19" stroke-width="0.96"/>
</g>
<g id="g96">
<path id="path98" d="m183.93 614.24c2.9903 3.59 2.7128 9.6801 2.6786 13.27h17.343c-0.0342-3.59-0.31172-9.68 2.6786-13.27z"/>
<path id="path100" d="m193.68 573.11-2.3764-1.2239v-3.4974c0.97149 0.29214 2.062 0.41142 2.1686 1.9595 0.33824-2.2099 0.94822-2.1018 1.9064-2.963 0.95814 0.86127 1.5681 0.75315 1.9064 2.963 0.10661-1.5481 1.1971-1.6674 2.1686-1.9595v3.4974l-2.3764 1.2239z"/>
<path id="path102" d="m193.52 578.85-3.9464-2.7128v-3.2231c1.3836 0.32035 2.9366 0.45115 3.0885 2.1488 0.48172-2.4232 1.3504-3.6754 2.715-4.6198 1.3646 0.94444 2.2332 2.1966 2.715 4.6198 0.15183-1.6976 1.7049-1.8284 3.0885-2.1488v3.2231l-3.9464 2.7128z"/>
<path id="path104" d="m193.24 587.8-4.5378-3.9854v-4.7351c1.5909 0.47062 3.3767 0.66279 3.5513 3.1567 0.55391-3.56 1.5528-5.3995 3.1218-6.787 1.569 1.3875 2.5679 3.227 3.1218 6.787 0.17458-2.4939 1.9604-2.6861 3.5513-3.1567v4.7351l-4.5378 3.9854z"/>
<path id="path106" d="m201.61 593.09-4.1037 5.6759h-4.6463l-4.1037-5.6759z"/>
<path id="path108" d="m186.39 602.62c2.0526 1.1219 2.8106 3.3568 3.0299 7.5527h11.55c0.21927-4.1959 0.97728-6.4308 3.0298-7.5527z"/>
<g stroke-linejoin="bevel">
<path id="path110" d="m204.17 593.09v-5.7018c-1.9498 0.53675-3.2129 1.6912-3.7755 3.2577 0-1.8927-2.4906-6.2573-5.2071-8.4294-2.7242 2.4314-5.2575 6.3801-5.2066 8.4294-0.46332-1.4918-1.8258-2.7209-3.7755-3.2577v5.702z"/>
<path id="path112" d="m205.04 602.62-0.00021-5.7022c-2.1373 0.53675-3.522 1.6912-4.1387 3.2577 0-1.8927-2.7299-6.2573-5.7077-8.4294-2.9863 2.4314-5.7635 6.3801-5.7077 8.4294-0.50788-1.4918-2.0014-2.7209-4.1387-3.2577v5.702z"/>
<path id="path114" d="m207.44 614.32v-6.5765c-2.6591 0.68624-4.3124 2.653-5.1491 3.7996 0-3.5614-4.0212-8.9902-7.1011-10.768-3.1599 1.8244-7.1011 7.435-7.1011 10.768-0.85883-1.1395-2.49-3.1134-5.1491-3.7996v6.5765z"/>
<path id="path116" d="m206 628.92v-6.7617c-2.3465 0.9193-3.0479 3.1802-3.7862 4.7163 0.28981-6.8584-3.8614-14.23-7.0239-16.1-3.1624 1.8699-7.3926 9.3996-7.0239 16.1-0.75787-1.5265-1.4397-3.797-3.7862-4.7163v6.7618z"/>
</g>
<path id="path118" d="m204.36 639.16v-6.7618c-2.4581 0.58449-2.61 1.491-3.3916 3.0055 0.28981-4.0963-2.6114-8.7695-5.7739-10.639-3.1624 1.8699-6.0637 6.5431-5.7739 10.639-0.78168-1.5145-0.87771-2.421-3.3916-3.0055v6.7618z"/>
</g>
</g>
<g id="tower">
<g id="g121">
<path id="path123" d="m98.935 664.23v-20.44c-0.66964-2.6026-2.8793-4.9052-4.5407-5.3664v-17.993l3.7418 2.0232 4.2712 18.811v22.965z"/>
<path id="path125" d="m98.935 664.31v-20.519c-0.66964-2.6026-2.8793-4.9052-4.5407-5.3664v-19.243c2.5118 0 3.7418 3.2732 3.7418 3.2732l4.2712 18.811v22.886z"/>
<path id="path127" d="m96.275 669.55c1.7299-0.78125 4.2487-2.9188 4.2487-5.0695v-25.547l-1.1852-2.1088h43.522l-1.6983 2.1088v25.547c0 2.1508 1.7297 4.2883 3.4596 5.0695z"/>
<path id="path129" d="m135.84 669.55c-1.7299-0.78125-4.2487-2.9188-4.2487-5.0695v-24.297l3.619-3.359-29.588 0.00008 3.6191 3.3589v24.297c0 2.1508-2.5189 4.2883-4.2488 5.0695z"/>
<path id="path131" d="m131.69 669.55c-1.7299-0.78125-4.2487-2.9188-4.2487-5.0695v-21.965l2.369-3.359h-18.798l2.3688 3.359v21.965c0 2.1508-2.5189 4.2883-4.2488 5.0695z"/>
<path id="path133" d="m115.92 639.16 8.9819-0.00004-0.00002 30.393h-8.9818z"/>
<rect id="rect135" stroke-linejoin="bevel" height="16.495" width="3.5864" y="647.64" x="103.7"/>
<rect id="rect137" stroke-linejoin="bevel" height="16.495" width="3.5864" y="647.64" x="134.45"/>
<path id="path139" stroke-linejoin="bevel" d="m100.64 619.82h4.3202v16.909h-4.3202z"/>
<path id="path141" stroke-linejoin="bevel" d="m100.64 616.64h4.2946v3.1387h-4.2946z"/>
<path id="path143" stroke-linejoin="bevel" d="m136.17 623.46h6.1594v13.054h-6.1594z" stroke-width="1.0337"/>
<path id="path145" d="m104.89 636.6v-28.941c1.2321 0 1.4222 4.2418 4.249 4.2418 1.4716 0 1.3152-1.757 0.4889-3.1882-0.73168-1.2673-1.6372-3.0176-0.40702-6.2783 0.84298 2.4949 3.1119 3.2866 2.6927 1.722-0.72042-2.6886-2.7945-3.1298-1.2383-7.3021 0.54049 3.4806 2.7732 3.3273 2.2309 1.3034-0.61083-2.2796-1.8732-3.2139-0.3157-6.4275 0.87209 3.6492 2.0519 3.4352 2.0519 1.1711 0-3.347-0.1285-6.9568 4.2027-8.296 0 0 0.25002-3.0682 1.8123-3.0682s1.8123 3.0682 1.8123 3.0682c4.3312 1.3393 4.2027 4.949 4.2027 8.296 0 2.264 1.1798 2.4781 2.0519-1.1711 1.5574 3.2136 0.29513 4.1479-0.3157 6.4275-0.54227 2.0238 1.6904 2.1772 2.2309-1.3034 1.5562 4.1722-0.5179 4.6134-1.2383 7.3021-0.41923 1.5646 1.8497 0.77297 2.6927-1.722 1.2302 3.2606 0.32466 5.011-0.40702 6.2783-0.82627 1.4311-0.98274 3.1882 0.4889 3.1882 2.8268 0 3.0168-4.2418 4.249-4.2418v28.941z"/>
<path id="path147" d="m98.124 614.74 0.000081 22.079h2.5111l-0.00019-22.135c-0.90498-0.45686-1.7546-0.5274-2.511 0.0558z"/>
<path id="path149" d="m98.203 629.03c3.1124 1.5914 6.1949 3.4325 6.9754 7.7931h-6.9754z"/>
<path id="path151" d="m141.37 622.42 0.00006 14.407h2.0354v-14.443c-0.63587-0.2981-1.5039-0.34413-2.0354 0.0364z"/>
<path id="path153" d="m143.41 628.92c-3.1124 1.5914-6.1949 3.4325-6.9754 7.7931h6.9754z"/>
</g>
<g id="g155">
<path id="path157" d="m122.83 595.27 1.8142-1.5247v-1.9528c-0.6637 0.0645-1.0258 0.29275-1.516 0.93531-0.41694-1.2944-1.3337-2.3051-2.5624-2.9327-1.2287 0.6276-2.1454 1.5924-2.5624 2.8867-0.49022-0.64256-0.8523-0.8249-1.516-0.88935v1.9528l1.8142 1.5247z"/>
<path id="path159" d="m123.8 600.16 0.8432-1.8253v-2.5384c-0.6637 0.0654-1.0258 0.29688-1.516 0.94855-0.41694-1.3127-1.3337-2.3377-2.5624-2.9742-1.2287 0.63649-2.1454 1.6149-2.5624 2.9276-0.49022-0.65166-0.8523-0.83658-1.516-0.90194v2.5384l0.8432 1.8253z"/>
<path id="path161" d="m123.93 606.79 2.6948-3.2865v-3.2432c-0.98588 0.11068-1.5237 0.50272-2.2519 1.6061-0.61934-2.2227-1.9811-2.7084-3.8062-3.7861-1.8251 1.0777-3.1869 1.4845-3.8062 3.7072-0.72818-1.1034-1.266-1.4165-2.2519-1.5272v3.2432l2.6949 3.2865z"/>
<path id="path163" d="m124.72 613.3s3.1405-2.7397 3.3269-4.2436v-3.4672c-1.2171 0.14291-2.3682 0.45834-3.2672 1.8831-0.76458-2.8701-1.9586-3.6704-4.2117-5.0621-2.2532 1.3916-3.4471 2.192-4.2117 5.0621-0.89895-1.4248-2.0501-1.7402-3.2672-1.8831v3.4672c0.3965 1.5039 3.3269 4.2436 3.3269 4.2436z"/>
<path id="path165" d="m126.06 625.32s4.3013-4.7614 4.3999-6.6164v-5.4059c-1.6097 0.22281-3.1321 1.3298-4.321 3.5513-1.0112-4.4748-2.5903-7.5949-5.5702-9.7647-2.9799 2.1698-4.559 5.2898-5.5702 9.7647-1.1889-2.2215-2.7113-3.3285-4.321-3.5513v5.4059c0.30884 1.8551 4.3999 6.6164 4.3999 6.6164z"/>
<path id="path167" d="m126.06 632.43s3.6763-3.7418 4.3999-5.3664v-5.4059c-1.6097 0.22281-3.1321 1.3299-4.321 3.5513-1.0112-4.4748-2.5903-7.0369-5.5702-9.2067-2.9799 2.1698-4.559 4.7318-5.5702 9.2067-1.1889-2.2215-2.7113-3.3285-4.321-3.5513v5.4059c0.93384 1.6247 4.3999 5.3664 4.3999 5.3664z"/>
<path id="path169" d="m127.54 636.56c-1.0733-4.6678-1.9959-8.1303-7.163-11.641-5.167 3.5104-6.0894 6.9728-7.1627 11.641z"/>
<path id="path171" d="m130.2 639.16v-6.7618c-2.3465 0.91931-4.467 2.2802-5.2487 3.7947-0.87376-3.754-2.5569-5.4078-4.6536-7.6786-2.0967 2.2708-3.5008 3.9245-4.3746 7.6786-0.78168-1.5145-2.9024-2.8754-5.2489-3.7946l0.00022 6.7618z"/>
</g>
</g>
<use id="use173" xlink:href="#tower" transform="matrix(-1 0 0 1 390.74 0)" height="100%" width="100%" y="0" x="0"/>
<g id="g175">
<path id="path177" d="m72.694 694.25h245.33l0.00018 12.531-245.33 0.00001z"/>
<path id="path179" d="m66.228 706.76h258.26l0.00018 12.512-258.26 0.00002z"/>
<path id="path181" d="m85.576 675.51h219.56l0.00015 8.1093-219.56 0.00001z"/>
<path id="path183" d="m79.157 683.56h232.4l0.00017 10.622-232.4 0.00001z"/>
<path id="path185" d="m89.412 669.28h211.89l0.00015 6.174h-211.89z"/>
<path id="path187" stroke-width="1.0446" d="m112.41 669.31h16.005v49.935h-16.005z"/>
<path id="path189" stroke-width="1.0429" d="m115.95 669.31h8.9171v49.936h-8.917z"/>
<path id="path191" stroke-width="1.0446" d="m187.08 669.31h16.006v49.935h-16.005z"/>
<path id="path193" stroke-width="1.0429" d="m190.73 669.31h8.9171v49.936h-8.917z"/>
<path id="path195" stroke-width="1.0446" d="m262.19 669.31h16.005v49.935h-16.005z"/>
<path id="path197" stroke-width="1.0429" d="m265.73 669.31h8.9171v49.936h-8.917z"/>
</g>
<g id="g199" fill="none">
<path id="path201" d="m98.935 664.23h193.07"/>
<path id="path203" d="m115.79 712.97h9.2438m-9.2438-6.25h9.2438m-9.2438-6.25h9.2438m-9.2438-6.25h9.2438m-9.2438-6.25h9.2438m-9.2438-6.25h9.2438m-9.2438-6.25h9.2438"/>
<path id="path205" d="m190.77 712.98h8.6071m-8.6071-6.2533h8.6071m-8.6071-6.2533h8.6071m-8.6071-6.2533h8.6071m-8.6071-6.2533h8.6071m-8.6071-6.2533h8.6071m-8.6071-6.2533h8.6071"/>
<path id="path207" d="m265.57 712.97h9.2438m-9.2438-6.25h9.2438m-9.2438-6.25h9.2438m-9.2438-6.25h9.2438m-9.2438-6.25h9.2438m-9.2438-6.25h9.2438m-9.2438-6.25h9.2438"/>
</g>
</g>
</g>
</g>
</svg>
