<svg id="Layer_1" data-name="Layer 1" xmlns="http://www.w3.org/2000/svg" viewBox="0 0 1290.58 1172.95"><defs><style>.cls-1{fill:#5cbeff;}</style></defs><path class="cls-1" d="M23.27,1134.16c31.09-29.12,62.38-58.05,93.24-87.44,24.69-23.52,49.8-46.68,72.82-71.7,14-15.24,29.15-19.84,49.52-19.75q297.77,1,595.43.23c119.24-.23,212.25-76.34,234.48-190.67,24.51-126.3-78.48-255.78-209.55-263.33-10.54-.64-21.12-1-37.27-1.69,22.14-21.83,40.84-40.3,59.54-58.73,29.57-29,59.46-57.73,88.47-87.26,10.72-11,19.72-13.42,35-7.19,152.46,62.06,256,213.19,257.22,377.3,1.67,231.52-186.16,417.42-422.4,417.51q-395.92.21-791.9-.09H28c-1.57-2.41-3.1-4.78-4.68-7.19"/><path class="cls-1" d="M908.84,384.52c-41.63,40.26-78.76,76.61-116.64,112.19-4,3.78-12.43,4.37-18.79,4.42q-159.85.33-319.74,0c-37.41-.09-65.21-25.61-65.35-58.82-.14-33.76,26.83-59,64.75-59.1q217.48-.42,435-.14c4.55,0,9.1.59,20.75,1.41"/><path class="cls-1" d="M1269.9,26.66c-6.82,8-10.3,12.6-14.39,16.61-54.81,53.86-109.34,108-165.08,160.91-7.48,7.15-21.08,11.33-31.89,11.38-203.8.68-407.64.18-611.44.77C338.26,216.65,243,294,222.88,396.59,195.54,535.89,298.25,662.51,443,667.83c7.1.27,14.25,0,21.35,0l4.27,7.18c-20,18.16-40.52,35.9-60.06,54.6-31.89,30.48-63.49,61.24-94.45,92.63-8,8.14-14.62,8.92-24.6,4.5C128.89,755.68,35.42,635.26,27,462c-8.63-177.8,75.51-308.33,234.57-392C318.3,40.08,380.36,26.84,444.82,26.8c269.29-.18,541.5-9,807.82-.14h17.26"/><path class="cls-1" d="M386.23,777c8.91-6.59,18.61-12.37,26.55-20,26.5-25.34,52-51.73,78.8-76.84,5.62-5.23,14.81-9.6,22.38-9.65,107.86-.63,215.68-.59,323.54-.45,27.43,0,49.15,14.92,57.83,38.49,8.4,22.79,3.15,48.54-17.22,62.28-11.93,8-28.31,13.65-42.7,13.74-130.09,1-260.19.5-390.24.46-17.87,0-35.74,0-53.6,0-1.77-2.69-3.58-5.37-5.34-8.06"/></svg>