<svg width="13" height="7" viewBox="0 0 13 7" fill="none" xmlns="http://www.w3.org/2000/svg">
<path d="M12.3337 1.55151C12.3342 1.66978 12.3067 1.78664 12.2533 1.8935C12.2 2.00035 12.1221 2.0945 12.0254 2.16901L7.02539 5.99276C6.87628 6.1092 6.68925 6.17285 6.49623 6.17285C6.30321 6.17285 6.11617 6.1092 5.96706 5.99276L0.967059 2.03442C0.796879 1.90005 0.689858 1.70695 0.669542 1.49761C0.649225 1.28828 0.717277 1.07985 0.858726 0.918175C1.00017 0.756503 1.20343 0.654834 1.42379 0.635534C1.64414 0.616233 1.86355 0.680882 2.03373 0.815258L6.50039 4.35401L10.9671 0.934009C11.0894 0.837201 11.2383 0.775707 11.3963 0.756802C11.5542 0.737897 11.7146 0.762373 11.8584 0.827334C12.0021 0.892295 12.1233 0.995022 12.2076 1.12336C12.2918 1.2517 12.3356 1.40027 12.3337 1.55151Z" fill="#303233"/>
</svg>
