<svg width="20" height="20" viewBox="0 0 20 20" fill="none" xmlns="http://www.w3.org/2000/svg">
<circle cx="10" cy="10" r="10" fill="#0A8EE5"/>
<path d="M7.55018 9.49987C8.98633 9.49987 10.1503 8.26884 10.1503 6.74993C10.1503 5.23103 8.98633 4 7.55018 4C6.11403 4 4.95008 5.23103 4.95008 6.74993C4.95008 8.26884 6.11403 9.49987 7.55018 9.49987ZM9.37025 10.1874H9.03102C8.58006 10.4065 8.07832 10.5311 7.55018 10.5311C7.02203 10.5311 6.52233 10.4065 6.06934 10.1874H5.73011C4.22286 10.1874 3 11.4807 3 13.0748V13.9685C3 14.5378 3.43674 14.9997 3.97504 14.9997H9.55916C9.51041 14.8536 9.4901 14.699 9.50635 14.5421L9.64448 13.2338L9.66885 12.9953L9.82933 12.8256L11.3995 11.1649C10.9019 10.5698 10.1807 10.1874 9.37025 10.1874V10.1874ZM10.2904 13.309L10.1523 14.6195C10.13 14.8386 10.3047 15.0234 10.5098 14.9976L11.7469 14.8515L14.5481 11.8889L13.0916 10.3485L10.2904 13.309V13.309ZM15.8583 9.77701L15.0884 8.96277C14.8995 8.76297 14.5908 8.76297 14.4019 8.96277L13.634 9.77486L13.5507 9.86295L15.0092 11.4033L15.8583 10.5053C16.0472 10.3034 16.0472 9.97896 15.8583 9.77701V9.77701Z" fill="white"/>
</svg>
