<svg width="25" height="20" viewBox="0 0 25 20" fill="none" xmlns="http://www.w3.org/2000/svg">
<path d="M22.9167 0H2.08333C0.93316 0 0 0.959821 0 2.14286V2.85714H25V2.14286C25 0.959821 24.0668 0 22.9167 0ZM0 17.8571C0 19.0402 0.93316 20 2.08333 20H22.9167C24.0668 20 25 19.0402 25 17.8571V4.28571H0V17.8571ZM15.2778 7.5C15.2778 7.30357 15.434 7.14286 15.625 7.14286H21.875C22.066 7.14286 22.2222 7.30357 22.2222 7.5V8.21429C22.2222 8.41071 22.066 8.57143 21.875 8.57143H15.625C15.434 8.57143 15.2778 8.41071 15.2778 8.21429V7.5ZM15.2778 10.3571C15.2778 10.1607 15.434 10 15.625 10H21.875C22.066 10 22.2222 10.1607 22.2222 10.3571V11.0714C22.2222 11.2679 22.066 11.4286 21.875 11.4286H15.625C15.434 11.4286 15.2778 11.2679 15.2778 11.0714V10.3571ZM15.2778 13.2143C15.2778 13.0179 15.434 12.8571 15.625 12.8571H21.875C22.066 12.8571 22.2222 13.0179 22.2222 13.2143V13.9286C22.2222 14.125 22.066 14.2857 21.875 14.2857H15.625C15.434 14.2857 15.2778 14.125 15.2778 13.9286V13.2143ZM7.63889 7.14286C9.17101 7.14286 10.4167 8.42411 10.4167 10C10.4167 11.5759 9.17101 12.8571 7.63889 12.8571C6.10677 12.8571 4.86111 11.5759 4.86111 10C4.86111 8.42411 6.10677 7.14286 7.63889 7.14286ZM2.91233 16.2589C3.27691 15.1116 4.32292 14.2857 5.55556 14.2857H5.91146C6.44531 14.5134 7.02691 14.6429 7.63889 14.6429C8.25087 14.6429 8.83681 14.5134 9.36632 14.2857H9.72222C10.9549 14.2857 12.0009 15.1116 12.3655 16.2589C12.5043 16.7009 12.1398 17.1429 11.6884 17.1429H3.58941C3.13802 17.1429 2.77344 16.6964 2.91233 16.2589V16.2589Z" fill="white"/>
</svg>
