<svg width="20" height="20" viewBox="0 0 20 20" fill="none" xmlns="http://www.w3.org/2000/svg">
<path d="M10 20C12.6522 20 15.1957 18.9464 17.0711 17.0711C18.9464 15.1957 20 12.6522 20 10C20 7.34784 18.9464 4.8043 17.0711 2.92893C15.1957 1.05357 12.6522 0 10 0C7.34783 0 4.8043 1.05357 2.92893 2.92893C1.05357 4.8043 0 7.34784 0 10C0 12.6522 1.05357 15.1957 2.92893 17.0711C4.8043 18.9464 7.34783 20 10 20ZM8.37333 6.37333L6.74667 8H10.3333C11.8362 8 13.2776 8.59702 14.3403 9.65973C15.403 10.7224 16 12.1638 16 13.6667V14.3333C16 14.5986 15.8946 14.8529 15.7071 15.0404C15.5196 15.228 15.2652 15.3333 15 15.3333C14.7348 15.3333 14.4804 15.228 14.2929 15.0404C14.1054 14.8529 14 14.5986 14 14.3333V13.6667C14 13.1852 13.9052 12.7084 13.7209 12.2635C13.5366 11.8186 13.2665 11.4144 12.9261 11.0739C12.5856 10.7335 12.1814 10.4634 11.7365 10.2791C11.2916 10.0948 10.8148 10 10.3333 10H6.74667L8.37333 11.6267C8.47158 11.7182 8.55039 11.8286 8.60504 11.9513C8.6597 12.0739 8.68909 12.2064 8.69145 12.3406C8.69382 12.4749 8.66912 12.6083 8.61883 12.7328C8.56854 12.8573 8.49368 12.9704 8.39872 13.0654C8.30376 13.1603 8.19065 13.2352 8.06613 13.2855C7.94161 13.3358 7.80824 13.3605 7.67397 13.3581C7.5397 13.3558 7.40728 13.3264 7.28461 13.2717C7.16195 13.2171 7.05155 13.1383 6.96 13.04L3.62667 9.70667C3.4394 9.51917 3.33421 9.265 3.33421 9C3.33421 8.735 3.4394 8.48083 3.62667 8.29333L6.96 4.96C7.05155 4.86175 7.16195 4.78295 7.28461 4.72829C7.40728 4.67364 7.5397 4.64425 7.67397 4.64188C7.80824 4.63951 7.94161 4.66421 8.06613 4.7145C8.19065 4.7648 8.30376 4.83966 8.39872 4.93462C8.49368 5.02957 8.56854 5.14269 8.61883 5.2672C8.66912 5.39172 8.69382 5.52509 8.69145 5.65936C8.68909 5.79363 8.6597 5.92605 8.60504 6.04872C8.55039 6.17138 8.47158 6.28179 8.37333 6.37333Z" fill="white"/>
</svg>
