<svg width="20" height="20" viewBox="0 0 20 20" fill="none" xmlns="http://www.w3.org/2000/svg">
<path d="M7.98891 16.3995C7.78416 16.3995 7.64766 16.5994 7.64766 16.9327C7.64766 17.1992 7.78416 17.4658 8.05716 17.4658C8.26191 17.4658 8.39841 17.2659 8.39841 16.9327C8.39841 16.6661 8.26191 16.3995 7.98891 16.3995ZM2.52894 16.3995C2.52894 16.4661 2.46069 16.5994 2.46069 16.6661L2.39245 16.9993H2.73369L2.66544 16.6661C2.59719 16.5994 2.59719 16.5328 2.52894 16.3995V16.3995ZM1.2322 16.3995H1.0957V16.866H1.2322C1.43695 16.866 1.5052 16.7994 1.5052 16.5994C1.5052 16.3995 1.43695 16.3995 1.2322 16.3995ZM6.48742 16.3995H6.35092V16.866H6.48742C6.69217 16.866 6.76042 16.7994 6.76042 16.5994C6.76042 16.3995 6.62392 16.3995 6.48742 16.3995ZM9.4904 16.3995H9.3539V16.7994H9.4904C9.69515 16.7994 9.7634 16.7327 9.7634 16.5994C9.7634 16.4661 9.6269 16.3995 9.4904 16.3995V16.3995ZM19.7278 4.86945L9.7634 0.0708277C9.7065 0.0358887 9.64263 0.0132022 9.57604 0.00428216C9.50945 -0.00463785 9.44168 0.000413843 9.37725 0.0191001C9.31282 0.0377864 9.25321 0.0696774 9.2024 0.112645C9.15159 0.155612 9.11076 0.208668 9.08261 0.268271L9.08176 0.27077V0.337418L8.87701 0.670656L7.71677 3.00332H11.8936C12.4891 3.00332 12.972 3.47485 12.972 4.05635V4.07051V4.06968V19.3986C13.0402 19.332 13.1085 19.2653 13.1085 19.1987L19.9334 5.53593C19.9671 5.47983 19.9886 5.41758 19.9966 5.35303C20.0046 5.28848 19.999 5.22302 19.98 5.16069C19.9611 5.09837 19.9292 5.0405 19.8864 4.99069C19.8436 4.94088 19.7908 4.90018 19.7313 4.87112L19.7287 4.87028L19.7278 4.86945ZM7.85241 12.2007C7.39408 12.0473 6.91589 11.9579 6.43197 11.9349L6.41917 11.9341V13.8669C6.76818 13.7135 7.07764 13.4859 7.3249 13.2006C7.57215 12.9153 7.75093 12.5796 7.84815 12.2182L7.85241 12.2007ZM8.05716 8.06853C7.55731 8.24702 7.02902 8.33757 6.4968 8.33596L6.41576 8.33512H6.42002V9.40148H8.26276C8.25688 8.938 8.18481 8.47758 8.04863 8.03354L8.05801 8.06853H8.05716ZM6.41917 5.93581V7.73529L6.48315 7.73613C6.97711 7.73613 7.44803 7.63782 7.87545 7.46037L7.85241 7.4687C7.76359 7.11953 7.58762 6.79726 7.34021 6.53065C7.0928 6.26405 6.78165 6.06141 6.43453 5.94081L6.41917 5.93581Z" fill="white"/>
<path d="M8.73989 11.8008C8.98729 11.9332 9.17839 12.1415 9.28333 12.3931L9.28589 12.4006C9.8334 11.7899 10.1677 11.0248 10.2405 10.2162L10.2414 10.2012H8.94464C8.97899 10.7533 8.90634 11.3067 8.7305 11.8324L8.73989 11.8016V11.8008ZM3.34817 12.9338C3.56316 13.1204 3.81056 13.277 4.081 13.3937L4.09892 13.4003C3.91038 13.1504 3.74914 12.8646 3.6297 12.5589L3.62117 12.5339C3.4942 12.6374 3.40008 12.7741 3.34988 12.928L3.34817 12.9338ZM8.80814 6.60227C8.5522 6.40649 8.26299 6.20905 7.9627 6.0266L7.92089 6.00244C8.16403 6.28986 8.37049 6.61976 8.5249 6.97633L8.53514 7.00215C8.67164 7.00215 8.80814 6.80221 8.80814 6.60227ZM8.05739 13.4003C8.32101 13.2779 8.54623 13.1212 8.73989 12.9338C8.72858 12.8518 8.69836 12.7733 8.65152 12.7043C8.60468 12.6354 8.54243 12.5777 8.46945 12.5356L8.46689 12.5339C8.39693 12.8663 8.25361 13.1579 8.05398 13.4045L8.05739 13.4003ZM9.01289 9.46811H10.3096C10.2201 8.64482 9.91092 7.85887 9.413 7.18877L9.42238 7.2021C9.29265 7.46051 9.07952 7.6701 8.81582 7.79859L8.80814 7.80192C8.87639 8.33511 8.94464 8.86829 9.01289 9.46811V9.46811ZM8.26214 10.2012H6.4194V11.2009C6.99249 11.2151 7.55808 11.3317 8.0881 11.545L8.05739 11.5342C8.1883 11.1024 8.2572 10.6549 8.26214 10.2046V10.2012ZM4.03067 6.20238C3.77965 6.29571 3.54767 6.43197 3.34561 6.60477L3.34817 6.60227C3.35322 6.67869 3.37386 6.75336 3.40887 6.82189C3.44389 6.89042 3.49257 6.95142 3.55207 7.00132L3.55292 7.00215C3.66212 6.69308 3.82506 6.42649 4.03237 6.19988L4.03067 6.20238ZM3.34817 7.73528C3.13614 7.5936 2.95252 7.41514 2.80644 7.20876L2.80217 7.2021C2.25138 7.86266 1.91853 8.67074 1.84753 9.51977L1.84668 9.53476H3.07517C3.08882 8.90831 3.18487 8.28616 3.36097 7.68363L3.34817 7.73528ZM5.66866 13.7336V11.9341C5.18691 11.9856 4.71092 12.0796 4.24651 12.2148L4.30366 12.2007C4.38789 12.5418 4.55429 12.8585 4.78903 13.1242C5.02377 13.3899 5.32007 13.5971 5.6533 13.7286L5.66866 13.7336Z" fill="white"/>
<path d="M12.1515 4.26936V4.24937C12.1515 4.12149 12.1027 3.99819 12.0147 3.90348C11.9267 3.80877 11.8058 3.74943 11.6754 3.73702H0.548189C0.534539 3.73535 0.518329 3.73535 0.50212 3.73535C0.432167 3.73552 0.363018 3.74992 0.299083 3.77764C0.235149 3.80536 0.177834 3.84579 0.130794 3.89635C0.0837547 3.94691 0.0480238 4.00649 0.0258813 4.07129C0.00373875 4.13609 -0.00432927 4.20468 0.00219198 4.2727V4.27103V19.4742C0.00219198 19.7649 0.243625 19.9999 0.540511 19.9999H11.6046C11.7459 19.9902 11.8788 19.9311 11.9791 19.8335C12.0794 19.7359 12.1403 19.6062 12.1506 19.4683V19.4667L12.1515 4.26936ZM1.16329 9.33458C1.26625 8.20517 1.77135 7.14674 2.59075 6.34338C3.41016 5.54002 4.49201 5.04255 5.64814 4.93751L5.66776 4.93584V4.86919H6.41851V4.93584C7.05928 4.98507 7.68385 5.15707 8.25656 5.44201C8.82926 5.72695 9.33889 6.11926 9.75633 6.59653C10.1738 7.0738 10.4909 7.62669 10.6895 8.22364C10.8881 8.82058 10.9644 9.44988 10.914 10.0756C10.8636 10.7013 10.6875 11.3113 10.3957 11.8705C10.1039 12.4298 9.70216 12.9274 9.21341 13.3351C8.72467 13.7427 8.15849 14.0524 7.54719 14.2464C6.9359 14.4403 6.29147 14.5148 5.6507 14.4656L5.66776 14.4664C3.12802 14.2473 1.1522 12.1804 1.1522 9.66198C1.1522 9.54702 1.15646 9.43205 1.16414 9.31958L1.16329 9.33458ZM1.23154 17.1323H1.09504V17.6655H0.753791V16.1326H1.23154C1.4032 16.114 1.57544 16.1622 1.71099 16.2668L1.70928 16.2659C1.84578 16.3326 1.84578 16.4659 1.84578 16.5992C1.84378 16.7228 1.79518 16.8415 1.70928 16.9324C1.65121 16.9955 1.58016 17.0459 1.50078 17.0804C1.4214 17.1148 1.33547 17.1325 1.2486 17.1323H1.23068H1.23154ZM2.86953 17.6655L2.73303 17.2656H2.32353L2.18703 17.6655H1.84578L2.32353 16.1326H2.80128L3.27903 17.6655H2.86953ZM3.82502 17.6655C3.68309 17.6763 3.54064 17.6525 3.41041 17.5964L3.41552 17.5989L3.48377 17.3323C3.61367 17.3874 3.75552 17.4103 3.89668 17.3989H3.89327C4.02977 17.3989 4.09802 17.3323 4.09802 17.2656C4.09802 17.199 4.02977 17.1323 3.82502 17.0657C3.62027 16.9324 3.41552 16.7991 3.41552 16.5992C3.41552 16.3326 3.62027 16.1326 4.02977 16.1326C4.1717 16.1219 4.31415 16.1456 4.44439 16.2018L4.43927 16.1993L4.37102 16.4659C4.26813 16.4046 4.14628 16.3809 4.02721 16.3992H4.02977C3.89327 16.3992 3.82502 16.4659 3.82502 16.5325C3.82502 16.5992 3.89327 16.6658 4.09802 16.7325C4.32836 16.7741 4.50155 16.9657 4.50752 17.1982V17.199C4.50752 17.4656 4.30277 17.6655 3.82502 17.6655V17.6655ZM5.12176 17.6655C4.97983 17.6763 4.83738 17.6525 4.70715 17.5964L4.71227 17.5989V17.3323C4.84216 17.3874 4.98402 17.4103 5.12518 17.3989H5.12176C5.25826 17.3989 5.39476 17.3323 5.39476 17.2656C5.39476 17.199 5.32651 17.1323 5.12176 17.0657C5.0096 17.0557 4.90531 17.0051 4.82938 16.9239C4.75345 16.8427 4.71138 16.7366 4.71141 16.6267L4.71227 16.5975V16.5992C4.71227 16.3326 4.91702 16.1326 5.32651 16.1326C5.46845 16.1219 5.6109 16.1456 5.74113 16.2018L5.73601 16.1993L5.66776 16.4659C5.56487 16.4046 5.44302 16.3809 5.32395 16.3992H5.32651C5.19001 16.3992 5.12176 16.4659 5.12176 16.5325C5.12176 16.5992 5.19001 16.6658 5.39476 16.7325C5.62511 16.7741 5.79829 16.9657 5.80426 17.1982V17.199C5.77558 17.3491 5.68756 17.4822 5.55922 17.5695C5.43088 17.6568 5.27251 17.6913 5.11835 17.6655L5.12176 17.6664V17.6655ZM6.9645 16.999C6.90653 17.0649 6.82996 17.1126 6.74437 17.1361C6.65879 17.1597 6.568 17.1581 6.48334 17.1315L6.48676 17.1323H6.35026V17.6655H6.00901V16.1326H6.48676C6.65842 16.114 6.83066 16.1622 6.96621 16.2668L6.9645 16.2659C7.101 16.3326 7.101 16.4659 7.101 16.5992C7.08565 16.7491 7.03702 16.8849 6.96194 17.0032L6.9645 16.999ZM8.73899 16.8657C8.75287 16.9627 8.74587 17.0614 8.71842 17.1556C8.69097 17.2498 8.64369 17.3373 8.57961 17.4126C8.51552 17.4879 8.43604 17.5492 8.34625 17.5928C8.25647 17.6364 8.15836 17.6611 8.0582 17.6655H7.92C7.72144 17.6638 7.53152 17.586 7.39111 17.4489C7.2507 17.3118 7.17103 17.1263 7.16925 16.9324V16.8657C7.15411 16.6725 7.21648 16.481 7.34319 16.3318C7.46989 16.1825 7.65102 16.0872 7.84834 16.066H7.92341C8.11025 16.066 8.29037 16.134 8.42857 16.2568C8.56677 16.3796 8.65312 16.5483 8.67074 16.73V16.7333L8.73899 16.8657ZM9.76274 17.6655C9.69449 17.5322 9.69449 17.4656 9.62624 17.3323C9.55799 17.1323 9.48974 17.0657 9.35324 17.0657H9.21674V17.6655H8.87549V16.1326H9.35324C9.43821 16.1183 9.52538 16.123 9.60825 16.1462C9.69113 16.1694 9.76756 16.2106 9.83184 16.2668L9.83099 16.2659C9.91669 16.3566 9.96527 16.4749 9.96749 16.5983V16.5992C9.96522 16.6837 9.93866 16.766 9.89085 16.8365C9.84303 16.9071 9.77588 16.9631 9.69705 16.9982L9.69449 16.999C9.83099 17.0657 9.83099 17.1323 9.89924 17.2656C9.91459 17.4156 9.96322 17.5514 10.0383 17.6697L10.0357 17.6655H9.76274ZM11.469 16.4659H11.0595V17.6655H10.7182V16.4659H10.2405V16.1993H11.4007V16.4659H11.469Z" fill="white"/>
<path d="M3.3473 11.8005C3.21886 11.2684 3.12906 10.728 3.07857 10.1835L3.07431 10.1343H1.91406C2.00439 10.9364 2.31377 11.7 2.80984 12.3454L2.80131 12.3337C2.94975 12.1229 3.13146 11.9455 3.34048 11.8047L3.3473 11.8005ZM5.66779 10.201H3.82505C3.8259 10.6767 3.90098 11.1357 4.03918 11.5664L4.0298 11.5339C4.55118 11.3598 5.09236 11.2485 5.64134 11.2024L5.66779 11.2007V10.201ZM5.66779 5.80225C4.91704 5.93554 4.4393 6.73531 4.23455 7.33514C4.65343 7.49843 5.13886 7.61589 5.64476 7.66671L5.66779 7.66838V5.80225ZM5.66779 9.46786V8.4015C5.0947 8.38736 4.52912 8.27074 3.99909 8.05743L4.0298 8.06826C3.89345 8.52257 3.8245 8.99361 3.82505 9.46703V9.46786H5.66779Z" fill="white"/>
</svg>
