<svg width="18" height="20" viewBox="0 0 18 20" fill="none" xmlns="http://www.w3.org/2000/svg">
<path d="M8.39286 2.57796e-07C8.01603 -0.0002031 7.64842 0.11991 7.34069 0.343785C7.03296 0.567661 6.80025 0.884278 6.67464 1.25H4.75C4.26693 1.25 3.80364 1.44754 3.46205 1.79918C3.12047 2.15081 2.92857 2.62772 2.92857 3.125V7.82C3.9478 7.44861 5.05116 7.39683 6.09899 7.67121C7.14682 7.9456 8.09203 8.53381 8.81498 9.3614C9.53794 10.189 10.0061 11.2188 10.1603 12.3204C10.3145 13.422 10.1478 14.546 9.68121 15.55L12.1098 18.05C12.3529 18.3002 12.5222 18.616 12.5983 18.9611C12.6744 19.3062 12.654 19.6663 12.5396 20H15.6786C16.1616 20 16.6249 19.8025 16.9665 19.4508C17.3081 19.0992 17.5 18.6223 17.5 18.125V3.125C17.5 2.62772 17.3081 2.15081 16.9665 1.79918C16.6249 1.44754 16.1616 1.25 15.6786 1.25H13.7539C13.6283 0.884278 13.3956 0.567661 13.0879 0.343785C12.7801 0.11991 12.4125 -0.0002031 12.0357 2.57796e-07H8.39286ZM12.0357 1.25C12.1967 1.25 12.3512 1.31585 12.465 1.43306C12.5789 1.55027 12.6429 1.70924 12.6429 1.875C12.6429 2.04076 12.5789 2.19973 12.465 2.31694C12.3512 2.43415 12.1967 2.5 12.0357 2.5H8.39286C8.23183 2.5 8.0774 2.43415 7.96354 2.31694C7.84968 2.19973 7.78571 2.04076 7.78571 1.875C7.78571 1.70924 7.84968 1.55027 7.96354 1.43306C8.0774 1.31585 8.23183 1.25 8.39286 1.25H12.0357ZM8.15364 15.745C8.79711 14.8592 9.09075 13.7553 8.97547 12.6556C8.86019 11.5559 8.34455 10.542 7.53232 9.81785C6.72008 9.09373 5.67156 8.71319 4.59775 8.75281C3.52395 8.79244 2.50458 9.24928 1.7448 10.0314C0.985017 10.8135 0.541223 11.8629 0.50273 12.9683C0.464238 14.0737 0.833905 15.153 1.53733 15.9891C2.24076 16.8253 3.22574 17.3561 4.29403 17.4748C5.36232 17.5934 6.43463 17.2911 7.29514 16.6287L10.3916 19.8162C10.5054 19.9336 10.6599 19.9996 10.821 19.9997C10.9821 19.9998 11.1367 19.9341 11.2507 19.8169C11.3647 19.6997 11.4288 19.5407 11.4289 19.3748C11.429 19.209 11.3651 19.0499 11.2513 18.9325L8.15486 15.745H8.15364ZM4.75 16.25C3.94488 16.25 3.17273 15.9208 2.60343 15.3347C2.03412 14.7487 1.71429 13.9538 1.71429 13.125C1.71429 12.2962 2.03412 11.5013 2.60343 10.9153C3.17273 10.3292 3.94488 10 4.75 10C5.55512 10 6.32727 10.3292 6.89657 10.9153C7.46588 11.5013 7.78571 12.2962 7.78571 13.125C7.78571 13.9538 7.46588 14.7487 6.89657 15.3347C6.32727 15.9208 5.55512 16.25 4.75 16.25Z" fill="white"/>
</svg>
